<svg width="32" height="33" viewBox="0 0 32 33" fill="none" xmlns="http://www.w3.org/2000/svg">
<g clip-path="url(#clip0_4709_7471)">
<path d="M13.3789 32.4859C17.6205 32.4859 21.6884 30.8009 24.6876 27.8017C27.6869 24.8024 29.3719 20.7345 29.3719 16.4929C29.3719 12.2513 27.6869 8.18351 24.6876 5.18423C21.6884 2.18497 17.6205 0.5 13.3789 0.5V16.4929V32.4859Z" fill="#E4EFFA"/>
<path d="M15.8758 3.10156L2.85547 7.72007L8.51761 23.6453L21.5379 19.0268L15.8758 3.10156Z" fill="#AB1F08"/>
<path d="M2.85547 7.72007L15.8758 3.10156L16.2306 4.09951C16.5872 5.10236 16.0648 6.20459 15.0648 6.55927L5.66824 9.89241C4.66824 10.2471 3.56687 9.72087 3.2103 8.71807L2.85547 7.72007Z" fill="#E42612"/>
<path d="M23.2129 9.19206L10.1523 7.17578L7.64428 23.4219L20.7048 25.4382L23.2129 9.19206Z" fill="white"/>
<path fill-rule="evenodd" clip-rule="evenodd" d="M13.3017 16.8845L17.2728 14.9248L16.155 11.7539H10.2987L9.27344 14.9248L13.3017 16.8845Z" stroke="#846357" stroke-width="1.31192" stroke-linejoin="round"/>
<path d="M23.4386 14.2166L2.97266 14.4219L3.1135 28.4657L23.5795 28.2605L23.4386 14.2166Z" fill="#B98063"/>
<path fill-rule="evenodd" clip-rule="evenodd" d="M23.3833 14.3184L20.8689 22.0997C20.6042 22.9187 19.8442 23.4716 18.9832 23.4716H7.5507C6.68967 23.4716 5.9215 22.9187 5.64476 22.0997L3.01562 14.3184H23.3833Z" fill="#CD9A83"/>
<path d="M9.05146 22.1855H7.92958C7.79157 22.1855 7.67969 22.2974 7.67969 22.4354V24.6481C7.67969 24.7861 7.79157 24.898 7.92958 24.898H9.05146C9.18947 24.898 9.30135 24.7861 9.30135 24.6481V22.4354C9.30135 22.2974 9.18947 22.1855 9.05146 22.1855Z" fill="#5F453B"/>
<path d="M18.6726 22.1855H17.5507C17.4127 22.1855 17.3008 22.2974 17.3008 22.4354V24.6481C17.3008 24.7861 17.4127 24.898 17.5507 24.898H18.6726C18.8106 24.898 18.9224 24.7861 18.9224 24.6481V22.4354C18.9224 22.2974 18.8106 22.1855 18.6726 22.1855Z" fill="#5F453B"/>
</g>
<defs>
<clipPath id="clip0_4709_7471">
<rect width="32" height="32" fill="white" transform="translate(0 0.5)"/>
</clipPath>
</defs>
</svg>
