<svg width="25" height="24" viewBox="0 0 25 24" fill="none" xmlns="http://www.w3.org/2000/svg">
<path d="M12.0819 22H5.33203C4.8016 22 4.29289 21.7893 3.91782 21.4142C3.54274 21.0391 3.33203 20.5304 3.33203 20V4C3.33203 3.46957 3.54274 2.96086 3.91782 2.58579C4.29289 2.21071 4.8016 2 5.33203 2H12.332L19.332 9V9.75003" stroke="white" stroke-linecap="round" stroke-linejoin="round"/>
<path d="M12.332 2V9H19.332" stroke="white" stroke-linecap="round" stroke-linejoin="round"/>
<line x1="7.33203" y1="8.5" x2="9.33203" y2="8.5" stroke="white" stroke-linecap="round" stroke-linejoin="round"/>
<line x1="7.33203" y1="13" x2="10.832" y2="13" stroke="white" stroke-linecap="round" stroke-linejoin="round"/>
<line x1="7.33203" y1="17.5" x2="10.832" y2="17.5" stroke="white" stroke-linecap="round" stroke-linejoin="round"/>
<path d="M17.2182 12.3948L17.4028 12.8595C17.403 12.8594 17.4034 12.8593 17.4038 12.8591C17.409 12.8571 17.4274 12.8498 17.4491 12.8396L18.0909 12.5474L18.831 12.8701L18.8331 12.871L18.8331 12.871L18.8423 12.8749L18.849 12.8778L18.8506 12.8785L18.8593 12.8823L18.8699 12.8864C20.13 13.3756 21.5535 13.4038 22.832 12.9723V17.1267C22.832 19.1669 21.7469 21.0998 19.9003 22.2875L18.0814 23.4121L16.2625 22.2875C14.4161 21.1 13.332 19.1665 13.332 17.1261V12.9578C14.6455 13.4128 16.116 13.3787 17.4053 12.8585L17.2182 12.3948ZM17.2182 12.3948C15.9873 12.8915 14.5718 12.9028 13.332 12.4255L17.2374 12.3866C17.231 12.3898 17.2246 12.3923 17.2182 12.3948Z" stroke="white"/>
<path d="M19.4395 16.5L17.6442 18.2168L16.8281 17.4364" stroke="white" stroke-linecap="round" stroke-linejoin="round"/>
</svg>
