<?xml version="1.0" encoding="UTF-8"?>
<svg version="1.1" xmlns="http://www.w3.org/2000/svg" width="93" height="97">
<path d="M0 0 C30.69 0 61.38 0 93 0 C93 32.01 93 64.02 93 97 C62.31 97 31.62 97 0 97 C0 64.99 0 32.98 0 0 Z " fill="#414141" transform="translate(0,0)"/>
<path d="M0 0 C2.56811584 0.94324708 3.8064319 2.14771415 5.70373535 4.11367798 C6.39124878 4.81755646 7.07876221 5.52143494 7.78710938 6.24664307 C8.88569275 7.39198013 8.88569275 7.39198013 10.00646973 8.56045532 C11.57001797 10.15705811 13.133828 11.75340458 14.69787598 13.34951782 C17.15795525 15.87808318 19.6138554 18.41051211 22.0645752 20.94815063 C24.43035359 23.39210917 26.81108979 25.82068544 29.19396973 28.24795532 C29.92635864 29.01556183 30.65874756 29.78316833 31.41333008 30.57403564 C32.44460022 31.62039688 32.44460022 31.62039688 33.4967041 32.68789673 C34.09752808 33.30887238 34.69835205 33.92984802 35.31738281 34.56964111 C37.01918404 35.97562257 37.01918404 35.97562257 39.10121155 35.67300415 C41.50236714 34.59001254 42.86291505 33.32964179 44.68786621 31.42910767 C45.37215195 30.72522919 46.05643768 30.02135071 46.76145935 29.29614258 C47.49071121 28.53258453 48.21996307 27.76902649 48.97131348 26.98233032 C50.53014485 25.38557246 52.0894027 23.78923083 53.64904785 22.19326782 C56.10169277 19.6660168 58.54934084 17.13429603 60.98913574 14.59463501 C63.34514153 12.14827811 65.71923805 9.7206938 68.09631348 7.29483032 C68.82354111 6.52722382 69.55076874 5.75961731 70.30003357 4.96875 C70.98747147 4.27117584 71.67490936 3.57360168 72.38317871 2.85488892 C72.98178207 2.23391327 73.58038544 1.61293762 74.1971283 0.97314453 C76.10021973 -0.22860718 76.10021973 -0.22860718 78.83253479 0.07867432 C79.58087082 0.30727142 80.32920685 0.53586853 81.10021973 0.77139282 C81.80540466 3.02363586 81.80540466 3.02363586 82.10021973 5.77139282 C80.81581116 7.77732849 80.81581116 7.77732849 78.81726074 9.73550415 C78.07641739 10.47589432 77.33557404 11.21628448 76.57228088 11.97911072 C75.3505442 13.15439583 75.3505442 13.15439583 74.10412598 14.35342407 C72.87012306 15.57469246 72.87012306 15.57469246 71.6111908 16.82063293 C68.97541816 19.42276797 66.31957145 22.00330058 63.66271973 24.58389282 C61.87425058 26.34227648 60.08712302 28.1020258 58.3013916 29.8631897 C53.91645633 34.18190258 49.5148492 38.48304971 45.10021973 42.77139282 C49.32146483 47.83623709 53.75629248 52.48924251 58.50256348 57.06045532 C59.90108393 58.42689199 61.29884924 59.7941019 62.69592285 61.16201782 C64.87711682 63.29357747 67.06237694 65.42010491 69.26062012 67.53408813 C71.39671748 69.5917553 73.51339636 71.66779385 75.62756348 73.74795532 C76.62420265 74.69343735 76.62420265 74.69343735 77.64097595 75.65802002 C79.29764426 77.30454787 80.80068605 78.83050252 82.10021973 80.77139282 C82.00476074 83.71035767 82.00476074 83.71035767 81.10021973 85.77139282 C78.83827209 86.47183228 78.83827209 86.47183228 76.10021973 86.77139282 C74.15916443 85.51821899 74.15916443 85.51821899 72.29138184 83.56436157 C71.58392319 82.84031128 70.87646454 82.11626099 70.14756775 81.37026978 C69.39846634 80.57451538 68.64936493 79.77876099 67.87756348 78.95889282 C66.7038192 77.75462646 66.7038192 77.75462646 65.50636292 76.52603149 C63.00209264 73.95494508 60.51823606 71.36539056 58.03771973 68.77139282 C55.55279633 66.17830415 53.06377114 63.59006587 50.55836487 61.01675415 C48.99797905 59.41383219 47.44944699 57.79927199 45.91392517 56.17251587 C45.20961868 55.44846558 44.50531219 54.72441528 43.77966309 53.97842407 C43.16409042 53.33365112 42.54851776 52.68887817 41.91429138 52.02456665 C40.19199335 50.56460257 40.19199335 50.56460257 38.09448242 50.86206055 C35.70220909 51.95287539 34.33429453 53.21650749 32.51257324 55.11367798 C31.48614464 56.1694957 31.48614464 56.1694957 30.4389801 57.24664307 C29.70972824 58.01020111 28.98047638 58.77375916 28.22912598 59.56045532 C26.6702946 61.15721319 25.11103676 62.75355481 23.5513916 64.34951782 C21.09874668 66.87676885 18.65109861 69.40848962 16.21130371 71.94815063 C13.85529792 74.39450753 11.4812014 76.82209184 9.10412598 79.24795532 C8.37689835 80.01556183 7.64967072 80.78316833 6.90040588 81.57403564 C6.21296799 82.2716098 5.52553009 82.96918396 4.81726074 83.68789673 C3.9193557 84.6193602 3.9193557 84.6193602 3.00331116 85.56964111 C1.10021973 86.77139282 1.10021973 86.77139282 -1.63209534 86.46411133 C-2.38043137 86.23551422 -3.1287674 86.00691711 -3.89978027 85.77139282 C-4.60496521 83.51914978 -4.60496521 83.51914978 -4.89978027 80.77139282 C-3.6153717 78.76545715 -3.6153717 78.76545715 -1.61682129 76.80728149 C-0.87597794 76.06689133 -0.13513458 75.32650116 0.62815857 74.56367493 C1.44264969 73.78015152 2.25714081 72.99662811 3.09631348 72.18936157 C3.91898209 71.37518265 4.7416507 70.56100372 5.58924866 69.72215271 C8.22502129 67.12001767 10.880868 64.53948506 13.53771973 61.95889282 C15.32618887 60.20050917 17.11331643 58.44075984 18.89904785 56.67959595 C23.28398313 52.36088306 27.68559025 48.05973593 32.10021973 43.77139282 C27.87897462 38.70654856 23.44414698 34.05354314 18.69787598 29.48233032 C17.29935552 28.11589365 15.90159022 26.74868374 14.5045166 25.38076782 C12.32332263 23.24920817 10.13806251 21.12268073 7.93981934 19.00869751 C5.80372197 16.95103034 3.68704309 14.8749918 1.57287598 12.79483032 C0.90844986 12.16450897 0.24402374 11.53418762 -0.4405365 10.88476562 C-4.89270995 6.45984391 -4.89270995 6.45984391 -4.92932129 2.89492798 C-3.66059449 0.27804733 -2.92126306 -0.35152576 0 0 Z " fill="#C9C9C9" transform="translate(7.8997802734375,7.228607177734375)"/>
</svg>
