<svg width="32" height="33" viewBox="0 0 32 33" fill="none" xmlns="http://www.w3.org/2000/svg">
<g clip-path="url(#clip0_4709_7361)">
<mask id="mask0_4709_7361" style="mask-type:luminance" maskUnits="userSpaceOnUse" x="0" y="0" width="32" height="33">
<path d="M0 32.5H32V0.5H0V32.5Z" fill="white"/>
</mask>
<g mask="url(#mask0_4709_7361)">
<path d="M15.9516 31.9814C24.645 31.9814 31.6924 24.9341 31.6924 16.2407C31.6924 7.54735 24.645 0.5 15.9516 0.5C7.25829 0.5 0.210938 7.54735 0.210938 16.2407C0.210938 24.9341 7.25829 31.9814 15.9516 31.9814Z" fill="#E4EFFA"/>
<path d="M10.7461 12.3438L19.0848 17.1342L19.3531 23.7613C19.3706 23.8046 19.3796 23.8481 19.3798 23.8919C19.3816 24.4493 18.7051 24.8418 16.913 24.7442C15.1209 24.6465 13.6667 24.1155 13.6649 23.558C13.6649 23.5445 13.6657 23.5311 13.6673 23.5179L13.6624 23.5176L10.7461 12.3438Z" fill="#E1AEA1"/>
<path d="M12.0739 24.6112C11.1902 24.8786 10.2916 25.1397 9.39597 25.3999C3.19701 27.2009 -2.85938 28.9604 -2.85938 32.4914C-2.0109 34.4892 -0.941398 34.7776 0.464138 35.1565C0.85767 35.2626 1.27754 35.3758 1.72628 35.5357C2.53442 35.8235 3.13 36.5071 3.838 37.3198C4.92726 38.5701 6.28263 40.1258 9.0874 41.0153C11.3415 41.7302 13.458 41.4393 15.6205 41.142C17.5101 40.8824 19.4348 40.6178 21.5169 41.0153C26.4213 41.9516 27.3308 39.7436 28.1394 37.7803C28.5169 36.8638 28.8725 36.0007 29.6021 35.5357C30.4356 35.0045 31.5081 34.6182 32.5358 34.248C34.3355 33.5997 35.9978 33.001 35.9978 31.7608C35.9978 29.0902 32.7397 27.6206 29.6021 26.89C28.4889 26.6307 26.7727 26.1224 25.1337 25.6369C23.7924 25.2397 22.5026 24.8577 21.6375 24.64C19.8114 23.8277 19.6777 22.6469 19.6309 21.7737C18.0604 21.4592 15.2739 21.2346 12.7914 21.7737C13.1077 23.0208 12.9363 23.9866 12.0739 24.6112Z" fill="#E13632"/>
<path d="M15.8005 21.8475L15.6328 21.6143H15.9201H16.638H16.8246L16.7858 21.7766L16.7863 21.7796C16.789 21.7963 16.7939 21.821 16.8015 21.855C16.8166 21.9224 16.8399 22.0168 16.87 22.1364C16.88 22.176 16.8907 22.2183 16.902 22.2629C16.9585 22.4869 17.0308 22.7728 17.1089 23.103C17.2962 23.8951 17.518 24.9463 17.6412 26.0269C17.6541 26.1399 17.6982 26.3502 17.7685 26.6544C17.8128 26.8464 17.8665 27.0714 17.9275 27.3272C17.9624 27.4732 17.9997 27.6293 18.0389 27.7949C18.2545 28.7046 18.5286 29.8943 18.7898 31.257C19.3119 33.9808 19.7837 37.4021 19.6322 40.6671L19.6257 40.8075H19.4851H18.9008H18.7445L18.7537 40.6516C18.9356 37.5731 18.5398 34.5048 18.069 31.9156C17.8644 30.7908 17.646 29.7579 17.4547 28.8537C17.4259 28.7173 17.3977 28.5838 17.3703 28.4535C17.1614 27.462 16.995 26.6403 16.938 26.0579C16.8429 25.0851 16.6537 24.1627 16.439 23.4156C16.2227 22.6629 15.9851 22.1043 15.8005 21.8475Z" fill="#244A6C" stroke="#244A6C" stroke-width="0.299431"/>
<path d="M9.89123 12.5009C11.3908 16.6477 12.754 18.804 16.0257 19.8407C17.7525 20.3384 19.7973 18.1406 20.2517 17.2283C20.7061 16.3159 22.8419 12.6668 22.342 9.63957C21.8422 6.61241 18.4171 0.430391 13.3177 2.34841C9.32237 3.85117 9.89123 5.76359 9.89123 12.5009Z" fill="#F8D4CB"/>
<path fill-rule="evenodd" clip-rule="evenodd" d="M16.0051 4.70161L14.7976 2.12562L16.4178 4.57054C17.8817 4.3335 22.7703 5.86758 21.9313 12.0056C21.9501 13.1652 21.6186 14.5604 21.4716 14.7461C22.7849 13.5082 24.1925 9.62921 23.3857 5.86389C22.745 3.35429 20.3192 2.31213 18.9505 2.1843C15.0586 -0.402528 10.1124 -0.172754 8.47301 6.65371C7.94362 8.54232 8.08826 11.7099 8.22672 13.0576C7.3715 15.8215 4.54993 21.8972 0.105469 24.0891L6.62033 25.6615C7.73798 24.5866 8.56863 22.9072 8.88154 22.083C9.2574 23.675 8.99442 25.2047 8.68843 26.1607L11.9479 26.9473C13.8673 21.7548 12.4946 18.3451 11.5131 15.907C11.0494 14.7551 10.673 13.8201 10.7723 13.0164C11.7042 11.9014 12.3432 10.991 13.6378 7.5701C13.9497 6.74608 15.2704 5.16799 16.0051 4.70161Z" fill="#5F453B"/>
<path fill-rule="evenodd" clip-rule="evenodd" d="M11.868 26.947L8.68571 26.1738C8.9935 25.2188 9.26064 23.6824 8.88309 22.083C8.56929 22.9094 7.73503 24.5957 6.61283 25.6702L0.105469 24.0891C4.54993 21.8972 7.37147 15.8215 8.2267 13.0576C8.08824 11.7099 7.94359 8.54232 8.47299 6.65372C9.83624 0.977301 13.4859 -0.13788 16.9146 1.13479C16.033 1.47227 15.4896 1.98317 15.1716 2.6133C16.3951 2.078 17.6185 1.99135 18.8086 2.0915C18.856 2.12201 18.9033 2.15295 18.9505 2.1843C20.3193 2.31213 22.745 3.35429 23.3857 5.86389C24.1924 9.62922 22.7847 13.4703 21.4714 14.7082C21.6184 14.5225 21.9625 13.2537 21.9438 12.094C21.9624 11.9577 21.9782 11.8237 21.9912 11.6918C23.0675 8.70754 22.1093 6.7711 21.5333 5.61217C20.8333 4.2036 18.2837 3.24004 16.4916 4.53606C16.4779 4.54598 16.4643 4.55584 16.4507 4.56565C16.44 4.56712 16.4295 4.56868 16.4192 4.57033L14.7991 2.12562L16.0063 4.70086C15.7743 4.84786 15.4837 5.10599 15.1848 5.41635C14.1275 6.05888 13.2896 6.35307 12.0686 6.59559C10.3919 6.92856 8.479 7.50568 8.96067 10.2722C9.0414 10.8042 9.00182 10.9577 8.90799 11.3216C8.85959 11.5092 8.79685 11.7527 8.72866 12.1327C8.72585 12.1484 8.72304 12.1641 8.72023 12.1799C8.52133 13.2867 8.28893 14.58 9.94604 17.1592C10.0957 17.3921 10.2445 17.6177 10.3905 17.8388C11.6223 19.7058 12.6509 21.2647 12.2914 24.3955L12.311 25.6044C12.1907 26.0355 12.0471 26.48 11.878 26.9384L11.868 26.947Z" fill="#5F453B"/>
<path d="M11.0478 13.8469C10.3937 14.0156 9.65243 13.334 9.39203 12.3245C9.13162 11.3151 9.45074 10.36 10.1048 10.1912C10.7588 10.0225 11.5002 10.7041 11.7606 11.7136C12.021 12.723 11.7018 13.6781 11.0478 13.8469Z" fill="#F8D4CB"/>
<path d="M15.0415 10.8021C15.0415 11.0657 14.8281 11.2916 14.552 11.2916C14.2759 11.2916 14.0625 11.0783 14.0625 10.8021C14.0625 10.526 14.2759 10.3125 14.552 10.3125C14.8281 10.3125 15.0415 10.526 15.0415 10.8021Z" fill="#211E1F"/>
<path d="M20.8032 10.8021C20.8032 11.0657 20.5898 11.2916 20.3137 11.2916C20.0376 11.2916 19.8242 11.0783 19.8242 10.8021C19.8242 10.526 20.0376 10.3125 20.3137 10.3125C20.5898 10.3125 20.8032 10.526 20.8032 10.8021Z" fill="#211E1F"/>
<path d="M15.3281 15.7937C15.3281 15.7937 15.9028 16.9895 17.2082 16.9968C17.2082 16.9968 18.6559 17.0928 19.3461 15.8791L19.3769 15.829C17.1065 16.9335 15.3282 15.7812 15.3282 15.7812L15.3281 15.7937Z" fill="white"/>
<path d="M17.8524 11.6025C17.9196 12.4601 18.4241 12.8973 18.4409 13.6203C18.4576 14.3433 17.8018 14.4779 17.5664 14.3938" stroke="#E1AEA1" stroke-width="0.26995" stroke-linecap="round"/>
</g>
</g>
<defs>
<clipPath id="clip0_4709_7361">
<rect width="32" height="32" fill="white" transform="translate(0 0.5)"/>
</clipPath>
</defs>
</svg>
