<svg width="40" height="40" viewBox="0 0 40 40" fill="none" xmlns="http://www.w3.org/2000/svg">
<g clip-path="url(#clip0_4032_2828)">
<path d="M20 40C31.0457 40 40 31.0456 40 20C40 8.95427 31.0457 0 20 0C8.95434 0 0 8.95427 0 20C0 31.0456 8.95434 40 20 40Z" fill="#E4EFFA"/>
<mask id="mask0_4032_2828" style="mask-type:luminance" maskUnits="userSpaceOnUse" x="0" y="20" width="40" height="20">
<path d="M40 20C40 22.6264 39.4826 25.2271 38.4776 27.6537C37.4726 30.0802 35.9992 32.285 34.1422 34.1421C32.285 35.9994 30.0802 37.4725 27.6537 38.4775C25.2271 39.4825 22.6264 40 20 40C17.3735 40 14.7728 39.4825 12.3463 38.4775C9.91981 37.4725 7.71503 35.9994 5.85786 34.1421C4.0007 32.285 2.5275 30.0802 1.52241 27.6537C0.517314 25.2271 0 22.6264 0 20H20H40Z" fill="white"/>
</mask>
<g mask="url(#mask0_4032_2828)">
<path d="M11.7423 27.5928C12.1278 25.0914 11.5816 22.3164 11.2604 21.2416L13.1882 18.8965H25.429L26.2001 25.4432C26.5535 27.0065 27.3374 30.4655 27.6459 31.7944C28.0314 33.4554 31.3085 38.5365 33.5254 43.9103C35.2986 48.2097 37.4128 59.9025 38.2482 65.2116H18.6821C16.778 65.2116 15.8648 64.7583 15.4627 64.3123C15.3686 65.157 14.9302 66.2865 14.4412 66.2865C13.7665 66.2865 12.4171 66.4818 11.2604 66.2865C10.3351 66.13 10.5536 65.1788 10.7785 64.7231H8.75444C7.50151 64.6252 7.59787 62.4756 7.887 61.4007C8.17618 60.3259 4.60985 52.607 5.38092 49.3824C5.99781 46.8029 8.72226 45.3762 10.0074 44.9852C9.68614 43.4219 8.98575 39.9433 8.75444 38.5365C8.46531 36.7774 11.2604 30.7195 11.7423 27.5928Z" fill="#B98063"/>
<path d="M12.9403 24.4065C12.9041 24.2783 12.8676 24.1488 12.8308 24.0184L15.328 18.8965L21.6149 19.3293L22.014 21.0724C21.6705 21.3466 22.5883 22.6708 23.0886 24.1538C23.5492 24.9009 23.8743 26.554 24.0218 28.4559C24.0967 29.4216 24.1723 30.3974 24.1723 31.2325C24.1723 32.7546 24.7169 33.2575 25.3432 33.836C25.7373 34.2 26.1638 34.5938 26.5073 35.2905C26.8909 36.0681 27.1297 37.0763 27.3932 38.1883C27.7408 39.6554 28.1313 41.3041 28.9535 42.8428C29.9218 44.6548 29.4931 48.8438 29.1714 51.9887C29.0128 53.5387 28.8801 54.8347 28.9535 55.4676C28.9791 55.688 29.0091 55.9561 29.0434 56.2622C29.2928 58.492 29.7673 62.7344 30.4016 65.2116H18.683C16.7789 65.2116 15.8657 64.7583 15.4636 64.3123C15.46 64.345 15.4558 64.3782 15.4512 64.4113C15.099 63.7926 14.7725 63.1679 14.7211 62.907C14.6723 62.66 14.6021 61.9135 14.5199 61.0392C14.4148 59.9211 14.29 58.5939 14.1651 57.8349C14.0468 57.1147 14.4641 55.7555 14.8636 54.4546C15.2144 53.3122 15.5514 52.2147 15.4994 51.6349C15.4443 51.0202 14.9519 49.048 14.3881 46.79C13.8146 44.4927 13.1672 41.8993 12.8308 40.1375C12.1636 36.6432 12.1637 34.276 13.498 32.5852C14.7881 30.9503 13.9991 28.1561 12.9403 24.4065Z" fill="#EDE9E8"/>
<path d="M25.2043 24.2945C24.3448 25.3867 21.4319 27.5119 16.6565 27.2758C11.8812 27.0397 11.4882 25.3289 11.8885 24.5031L11.6836 21.2831L25.3403 19.8555L25.2043 24.2945Z" fill="#C21B17"/>
<path d="M25.2043 20.2672C24.3448 21.3594 21.4319 23.4846 16.6565 23.2484C11.8812 23.0123 11.4882 21.3016 11.8885 20.4757L11.6836 17.2558L25.3403 15.8281L25.2043 20.2672Z" fill="#960002"/>
<g style="mix-blend-mode:multiply" opacity="0.5">
<path fill-rule="evenodd" clip-rule="evenodd" d="M25.5686 19.3766L24.8941 16.041L12.6947 17.0468L11.0527 19.4173C11.0891 19.631 11.1259 19.8586 11.163 20.0977C11.5788 21.3731 12.121 23.6745 11.9683 25.8325C11.9668 25.8532 11.9652 25.8741 11.9636 25.8951C12.3131 27.433 13.061 28.2901 14.4336 28.3399C14.5964 28.3459 14.7557 28.3503 14.9118 28.3546C15.931 28.3831 16.8095 28.4077 17.6135 28.8099C19.4441 29.7256 20.8704 27.6637 21.2774 26.4521C21.6844 25.2404 23.2274 22.8225 24.4788 21.2466C25.0019 20.5879 25.3504 19.9795 25.5686 19.3766Z" fill="#846357"/>
</g>
</g>
<path d="M30.3617 14.061C28.9857 11.3429 27.9539 8.81231 25.8899 8C25.1082 11.572 23.651 19.0847 24.0762 20.5593C24.6079 22.4026 24.7017 26.5266 24.7642 27.1827C24.8268 27.8388 25.0144 28.2136 26.5467 27.87C29.2047 27.0577 30.1116 26.3391 32.2068 23.1212C34.302 19.9033 31.7377 16.779 30.3617 14.061Z" fill="#5F453B"/>
<path d="M9.75896 7.23179C12.4043 5.9175 14.6288 4.54386 17 5.14573C16.0007 8.43167 13.7199 15.2302 12.5919 16.1365C11.182 17.2695 10.0963 19.7463 9.59708 21.0735C9.09786 22.4006 7.57198 22.4049 6.65368 20.4121C5.73538 18.4193 4.99984 16.2897 5 12.5862C5.00016 8.76429 7.11361 8.54603 9.75896 7.23179Z" fill="#5F453B"/>
<path d="M5.81129 18.1151C6.04798 18.4108 6.31199 18.6984 6.60376 18.9773C9.21683 21.475 9.58976 18.8722 9.89142 16.7671C10.0246 15.8379 10.1438 15.0057 10.4356 14.7518C11.1981 14.0886 11.8289 12.3099 12.0491 11.5034L12.2815 10.7509L12.9129 10.9131L16.6322 6.30969C16.7678 5.88808 16.8915 5.49543 17 5.14367C14.908 4.62017 12.9302 5.61263 10.6767 6.74334C10.376 6.89424 10.0704 7.04759 9.75895 7.20013C9.33831 7.40618 8.93112 7.58487 8.54375 7.75488C6.49495 8.65405 5.00016 9.31005 5 12.4787C5 14.9036 5.32434 16.644 5.81129 18.1151Z" fill="#846357"/>
<path fill-rule="evenodd" clip-rule="evenodd" d="M32 18.7583C31.7258 21.9396 30.2729 24.3019 27.5226 25.5729C24.3335 27.0469 24.8991 24.4014 25.3566 22.2617C25.5585 21.3173 25.7393 20.4714 25.567 20.1218C25.1166 19.2085 25.1682 17.2659 25.2503 16.4087L25.7955 8C27.3933 8.78079 28.3164 10.787 29.3633 13.0624C29.5078 13.3763 29.6546 13.6954 29.8058 14.017C30.0229 14.4788 30.2717 14.9522 30.5259 15.4357C31.085 16.4995 31.6699 17.6124 32 18.7583Z" fill="#846357"/>
<path d="M26 8.35182C24.9635 7.65206 23.053 7.45115 20.9587 6.71089C18.8644 5.97063 17.8564 5 16.3976 5C15.8775 5.50488 15.1254 7.16531 13.397 8.98295C11.2459 11.2451 11.2459 13.5389 11.2459 15.7005V15.7289C11.2459 17.2435 11.1367 19.5703 11.0166 21.7161C10.8966 23.8619 11.4145 25.1812 12.9654 25.5334C14.1386 25.8 15.1331 25.9474 15.9459 26.5782C17.5507 27.8239 19.2783 26.0233 19.8785 24.8873C20.4786 23.7512 22.3798 21.6163 23.8554 20.2695C25.8806 18.4211 26 16.7736 26 14.0319V8.35182Z" fill="#EDE9E8"/>
<path fill-rule="evenodd" clip-rule="evenodd" d="M21.6386 6.9618C21.3992 6.88824 21.1562 6.80905 20.9107 6.72248C20.0814 6.43016 19.4208 6.10215 18.8353 5.81145C17.9281 5.36097 17.2012 5 16.3061 5C16.1109 5.18905 15.8832 5.53904 15.5844 5.99823C15.0799 6.77366 14.3728 7.86057 13.2769 9.00993C11.1053 11.2874 11.1053 13.5967 11.1054 15.773V15.8015C11.1054 16.7564 11.0621 18.0319 11 19.3825C11.9902 17.9946 13.5916 16.2062 15.3486 15.5183C17.7289 14.5863 18.438 12.8602 19.0013 11.489C19.1227 11.1936 19.2373 10.9146 19.3604 10.6637C19.8307 9.70457 20.9242 8.02042 21.6386 6.9618ZM21.3036 23C21.3219 21.5952 21.1531 19.865 20.5562 18.1478C19.476 15.0403 19.8527 13.9012 20.2639 12.6582C20.3666 12.3477 20.4714 12.0307 20.5562 11.675C20.8326 10.5159 21.3491 8.40245 21.6981 6.97998C22.2709 7.15412 22.8225 7.29633 23.3378 7.42917C24.4402 7.7134 25.3767 7.95483 26 8.37453V14.0931C26 16.8533 25.8795 18.512 23.835 20.3729C23.0248 21.1104 22.0875 22.0826 21.3036 23Z" fill="#B98063"/>
<path d="M14.6622 12.7858C15.1726 12.9025 15.6822 12.5783 15.8004 12.0616C15.9186 11.5448 15.6007 11.0313 15.0902 10.9145C14.5798 10.7978 14.0702 11.122 13.952 11.6388C13.8338 12.1555 14.1518 12.669 14.6622 12.7858Z" fill="#231F20"/>
<path d="M23.0893 15.6707C23.6069 15.7485 24.0904 15.3864 24.1692 14.8621C24.248 14.3377 23.8923 13.8495 23.3747 13.7717C22.8571 13.6939 22.3736 14.056 22.2948 14.5804C22.216 15.1047 22.5717 15.5929 23.0893 15.6707Z" fill="#231F20"/>
<path d="M15.7919 22C15.6835 22.365 15.454 23.2201 15.4025 23.7203M15.4025 23.7203C15.711 24.3282 16.3499 24.9023 17 25M15.4025 23.7203C14.6375 24.1038 13.534 24.0638 13 23.8326" stroke="#9B8A84" stroke-width="0.995798" stroke-linecap="round"/>
<path d="M15.7211 21.9723C15.2945 22.0791 14.7446 21.8587 14.6008 21.6291C14.457 21.3994 14.0697 20.5348 14.0002 19.7413C13.99 19.2511 14.3742 18.921 15.0298 19.0164C16.015 19.0959 16.7964 19.3167 17.5984 19.796C18.0559 20.0694 18.1413 20.4803 17.7571 20.8747C17.2259 21.42 16.1477 21.8655 15.7211 21.9723Z" fill="#5F453B"/>
<g style="mix-blend-mode:multiply" opacity="0.5">
<path d="M26.2494 8.31398C26.2785 8.33145 26.3069 8.34929 26.3348 8.3674V13.966C26.3348 14.8886 26.3206 15.6855 26.2194 16.4075C26.218 16.1323 26.2136 15.7911 26.2087 15.4088C26.1935 14.2322 26.1734 12.6663 26.2199 11.4388C26.2848 9.72629 25.4403 8.14552 23.6211 7.55273L26.2494 8.31398Z" fill="#C7B5AF"/>
<path d="M11.2935 23.9123C11.5528 23.6545 12.0784 23.8135 12.6388 23.983C12.08 23.5999 10.8206 22.068 11.1238 19.6816C11.0305 20.3625 10.8719 21.95 10.9838 22.8536C10.9838 23.2267 11.1903 23.7148 11.2935 23.9123Z" fill="#C7B5AF"/>
<path d="M11.293 23.9119C11.5956 24.6418 12.1455 25.1123 13.0076 25.3011C13.1668 25.3359 13.3228 25.3687 13.4757 25.4008C14.4738 25.6107 15.3343 25.7916 16.0549 26.3308C17.6958 27.5586 19.4622 25.7838 20.0759 24.6641C20.6895 23.5444 22.6333 21.4402 24.1421 20.1127C25.2036 19.1787 25.753 18.2968 26.0364 17.2949C25.5094 18.558 23.9577 20.479 22.8412 20.8563C22.1626 21.0856 21.4036 21.1031 20.6921 21.1195C19.9733 21.136 19.3329 21.1288 18.8431 21.3605C17.607 21.827 17.0705 22.3768 16.2543 23.1797C15.9294 24.036 14.72 24.2154 13.7455 24.2154C13.4076 24.2154 13.015 24.0966 12.6382 23.9826C12.0778 23.8131 11.5523 23.6541 11.293 23.9119Z" fill="#C7B5AF"/>
</g>
</g>
<defs>
<clipPath id="clip0_4032_2828">
<rect width="40" height="40" fill="white"/>
</clipPath>
</defs>
</svg>
