<svg width="32" height="33" viewBox="0 0 32 33" fill="none" xmlns="http://www.w3.org/2000/svg">
<g clip-path="url(#clip0_4709_7422)">
<mask id="mask0_4709_7422" style="mask-type:luminance" maskUnits="userSpaceOnUse" x="0" y="0" width="32" height="33">
<path d="M32 0.5H0V32.5H32V0.5Z" fill="white"/>
</mask>
<g mask="url(#mask0_4709_7422)">
<path d="M15.8736 32.2472C24.6404 32.2472 31.7472 25.1404 31.7472 16.3736C31.7472 7.60686 24.6404 0.5 15.8736 0.5C7.10686 0.5 0 7.60686 0 16.3736C0 25.1404 7.10686 32.2472 15.8736 32.2472Z" fill="#E4EFFA"/>
<path d="M2.98543 20.5779C2.91929 20.1408 2.79106 19.5754 2.84491 18.7058C2.95738 16.6571 4.76846 14.984 7.59792 14.0788C8.42828 13.8086 9.01985 13.4137 9.44039 12.9778L9.4693 13.0111C11.0033 11.6755 11.2698 9.67773 11.2785 8.66992C12.2976 9.32295 13.0379 10.287 13.6459 11.3841C13.75 11.6065 13.8623 11.8196 13.9828 12.0232C15.0104 14.0539 15.7003 16.064 15.3763 18.375C14.964 21.3194 13.608 24.3036 13.8798 27.2884C13.6382 27.3761 13.3785 27.4561 13.101 27.5374C10.9246 28.1671 8.0282 28.2465 5.70839 27.8437C4.89823 25.3825 4.04532 22.942 2.98481 20.5691L2.98543 20.5779Z" fill="#432920"/>
<mask id="mask1_4709_7422" style="mask-type:luminance" maskUnits="userSpaceOnUse" x="0" y="0" width="32" height="33">
<path d="M31.7472 16.3736C31.7472 25.1404 24.6404 32.2473 15.8736 32.2473C7.10684 32.2473 0 25.1404 0 16.3736C0 7.60687 7.10684 0.5 15.8736 0.5C31.7472 0.5 31.7472 7.60687 31.7472 16.3736Z" fill="white"/>
</mask>
<g mask="url(#mask1_4709_7422)">
<path d="M23.493 22.1963C20.1317 22.5614 14.9371 24.0828 11.9425 26.1519C11.3924 29.012 11.2702 39.4791 12.4925 49.8244H27.5877C27.771 48.9725 28.321 46.4043 29.0544 42.9478C29.9711 38.6271 32.5379 31.6288 34.9824 26.1519C32.1712 24.3262 26.8543 22.6223 23.493 22.1963Z" fill="#9FCABE"/>
<path d="M32.0386 24.6348C31.2184 29.8187 28.7203 35.2619 24.5715 34.7035C17.4812 33.749 16.7244 34.6697 14.9572 39.0357C14.3681 40.491 13.8782 41.2089 13.47 41.8071C12.9349 42.5911 12.5401 43.1696 12.2461 44.9337C12.2461 44.9337 13.1105 47.9662 14.7993 51.7807C16.4882 55.5952 22.1748 51.5658 27.5859 49.8252C27.7692 48.9732 28.3193 46.4051 29.0526 42.9486C29.9694 38.6279 32.5361 31.6295 34.9807 26.1526C34.172 25.6274 33.1559 25.1123 32.0386 24.6348Z" fill="#5D897C"/>
<path d="M19.7028 15.7527C19.1822 15.8319 18.6491 15.1645 18.5119 14.2622C18.3747 13.3599 18.6855 12.5642 19.206 12.4851C19.7265 12.4059 20.2596 13.0733 20.3968 13.9756C20.534 14.878 20.2233 15.6736 19.7028 15.7527Z" fill="#E1AEA1"/>
<path fill-rule="evenodd" clip-rule="evenodd" d="M27.5685 16.2227L21.7674 18.4315L21.0839 22.6871C21.0694 22.7147 21.0609 22.7429 21.059 22.7714C21.0345 23.1412 22.1188 23.441 23.4809 23.441C24.8429 23.441 25.967 23.1412 25.9914 22.7714C25.9921 22.7626 25.992 22.7538 25.9913 22.745H25.9931L27.5685 16.2227Z" fill="#C77B6B"/>
<path d="M27.9438 13.9013C27.3628 18.1961 25.2491 20.0888 22.7488 20.0888C20.2485 20.0888 18.5206 17.3186 18.8894 13.9013C19.4747 8.47825 19.894 7.41897 24.0844 7.71377C27.8511 7.9788 28.7489 10.2494 27.9438 13.9013Z" fill="#E1AEA1"/>
<path d="M27.9438 13.9013C27.3628 18.1961 25.2491 20.0888 22.7488 20.0888C20.2485 20.0888 18.5206 17.3186 18.8894 13.9013C19.4747 8.47825 19.894 7.41897 24.0844 7.71377C27.8511 7.9788 28.7489 10.2494 27.9438 13.9013Z" fill="#E1AEA1"/>
<path d="M23.4305 16.582C21.5524 17.4365 20.1367 16.6517 20.1367 16.6517C20.1367 16.6517 20.4843 18.1332 21.5724 18.1332C22.6604 18.1332 23.4305 16.582 23.4305 16.582Z" fill="white"/>
<path d="M21.688 12.9521C21.2465 14.3799 20.9102 15.3589 20.9102 15.6648C20.9102 15.9708 21.1961 16.1567 21.688 16.1567" stroke="#CD9A83" stroke-width="0.27615" stroke-linecap="round"/>
<path d="M20.1671 13.2615C20.3483 13.3035 20.5291 13.1906 20.5711 13.0094C20.613 12.8283 20.5002 12.6474 20.319 12.6054C20.1378 12.5635 19.957 12.6763 19.915 12.8575C19.8731 13.0387 19.9859 13.2196 20.1671 13.2615Z" fill="#231F20"/>
<path d="M23.8642 13.6706C24.0481 13.6986 24.2198 13.5723 24.2478 13.3884C24.2758 13.2046 24.1494 13.0329 23.9656 13.0049C23.7817 12.9769 23.61 13.1032 23.582 13.2871C23.554 13.4709 23.6804 13.6426 23.8642 13.6706Z" fill="#231F20"/>
<path d="M27.7045 14.3849C29.806 11.8079 29.3499 9.03187 28.1547 8.32595C27.6609 6.16628 25.7848 5.4908 23.1717 5.54737C21.0811 5.59262 19.7737 5.37384 19.3812 5.25879C19.4171 5.98039 19.4218 7.81958 19.1547 9.40331C18.8875 10.987 18.9791 12.1312 19.0583 12.5054L19.7065 9.52327C20.2335 9.90554 21.7808 10.6166 23.7537 10.4031C25.7267 10.1895 26.8213 10.0288 27.1219 9.97521C27.1459 10.3077 27.3961 11.1948 28.2046 12.0844L27.7045 14.3849Z" fill="#BB8754"/>
<path d="M27.382 16.9171C27.8488 17.1607 28.5695 16.7023 28.9918 15.8932C29.4142 15.0841 29.3782 14.2307 28.9115 13.987C28.4448 13.7434 27.724 14.2018 27.3017 15.0109C26.8793 15.82 26.9153 16.6734 27.382 16.9171Z" fill="#E1AEA1"/>
<path d="M9.72605 23.1335C11.8087 22.9599 15.6926 23.307 19.5202 24.5799C20.5089 26.2568 21.2696 29.1976 21.5348 32.1953C21.9127 36.4688 21.7788 43.3472 21.5348 45.9038H8.46223C6.03129 41.1958 0.566706 31.4685 0.207031 28.8098C2.7963 26.4955 7.64337 23.8277 9.72605 23.1335Z" fill="#E13632"/>
</g>
<path d="M9.93478 21.4292C12.1898 21.1413 13.7118 18.5107 13.3343 15.5537C12.9567 12.5966 10.8226 10.4329 8.56751 10.7208C6.31246 11.0088 4.79045 13.6393 5.16801 16.5964C5.54557 19.5534 7.67973 21.7171 9.93478 21.4292Z" fill="#CD9A83"/>
<path d="M5.83059 19C6.2724 18.7395 6.29666 17.9621 5.88478 17.2636C5.4729 16.5651 4.78084 16.2101 4.33903 16.4706C3.89722 16.7312 3.87296 17.5086 4.28484 18.2071C4.69673 18.9055 5.38878 19.2605 5.83059 19Z" fill="#CD9A83"/>
<path d="M10.9688 14.8584C10.8977 15.6055 11.324 16.2502 11.5941 16.5578C11.8641 16.8654 11.6509 17.2317 11.3667 17.2902" stroke="#975F45" stroke-width="0.259547" stroke-linecap="round"/>
<path fill-rule="evenodd" clip-rule="evenodd" d="M11.1854 19.3701L7.94141 19.8367L8.47487 23.7782L8.47601 23.778C8.53655 24.046 9.28562 24.1557 10.1684 24.0227C11.0651 23.8876 11.76 23.5533 11.7207 23.276C11.7186 23.2611 11.7145 23.2467 11.7083 23.2327L11.1854 19.3701Z" fill="#D8A28B"/>
<path d="M12.6834 17.1523C12.1795 17.0801 11.865 16.3661 11.9809 15.5577C12.0968 14.7492 12.5993 14.1524 13.1032 14.2246C13.6071 14.2969 13.9217 15.0109 13.8057 15.8193C13.6898 16.6278 13.1873 17.2246 12.6834 17.1523Z" fill="#D8A28B"/>
<g style="mix-blend-mode:multiply" opacity="0.5">
<path fill-rule="evenodd" clip-rule="evenodd" d="M8.17356 21.5521L7.94141 19.8367L11.1854 19.3701L11.5304 21.919C11.2421 22.052 10.9355 22.1432 10.6139 22.1868C9.7523 22.3036 8.90839 22.0613 8.17356 21.5521Z" fill="#D8A28B"/>
</g>
<path d="M10.1457 21.4292C12.4008 21.1413 13.9228 18.5107 13.5452 15.5537C13.1677 12.5966 11.0335 10.4329 8.77845 10.7208C6.52339 11.0088 5.00139 13.6393 5.37895 16.5964C5.75651 19.5534 7.89066 21.7171 10.1457 21.4292Z" fill="#F5D0C0"/>
<path d="M8.192 9.42624C8.10725 9.35265 6.5166 9.12844 5.35816 9.26268C4.76134 9.33099 3.98176 11.3294 3.04483 13.9837C2.24163 16.2753 1.19936 16.5516 2.9334 20.45C4.67624 24.3477 3.20508 17.7716 3.20508 17.7716C3.20508 17.7716 4.42923 16.3074 6.81134 15.0802C9.19351 13.853 11.01 12.8221 10.9802 10.8893" fill="#432920"/>
<path d="M2.92747 18.7784C2.88242 19.6474 3.00185 20.2133 3.06799 20.6504C3.04728 20.6077 3.03539 20.5644 3.01469 20.5217C2.07144 18.4321 2.19861 16.718 3.02715 14.7869C3.32184 14.4481 3.49403 14.0031 3.60212 13.5273C4.06249 12.3995 4.31171 11.1628 4.87388 10.0986C4.91666 10.0779 4.95882 10.0484 5.00161 10.0277C6.08184 9.53674 6.82393 10.0237 7.24498 10.2238C7.45411 9.92649 8.22801 8.97986 9.60606 8.6977C9.73691 8.67083 9.87716 8.65218 10.0174 8.63353C10.2991 8.6138 10.5997 8.61034 10.9298 8.64906C11.0637 8.66618 11.1982 8.69209 11.3151 8.71925C11.324 8.71862 11.3428 8.73495 11.3522 8.74311C11.3435 9.75092 11.077 11.7487 9.54302 13.0843C9.5424 13.0755 8.70081 13.8148 7.67169 14.152C4.85225 15.0741 3.03113 16.7303 2.91866 18.779L2.92747 18.7784Z" fill="#5F453B"/>
<path d="M5.83059 19C6.2724 18.7395 6.29666 17.9621 5.88478 17.2636C5.4729 16.5651 4.78084 16.2101 4.33903 16.4706C3.89722 16.7312 3.87296 17.5086 4.28484 18.2071C4.69673 18.9055 5.38878 19.2605 5.83059 19Z" fill="#F5D0C0"/>
<path d="M10.6089 15.0283C10.5619 15.7775 11.0086 16.4072 11.2883 16.7055C11.568 17.0037 11.3667 17.377 11.0845 17.4453" stroke="#DDAE9A" stroke-width="0.259547" stroke-linecap="round"/>
<path d="M12.2187 18.0879C11.3431 18.3863 10.1274 18.6697 9.25 18.3863C9.25 19.1943 10.0838 19.9438 10.8133 19.7939C11.4199 19.6692 11.9753 19.0819 12.2187 18.0879Z" fill="#9C6450"/>
<path fill-rule="evenodd" clip-rule="evenodd" d="M11.9307 18.1904C11.8042 18.522 11.4559 18.9162 10.6626 19.0254C9.9638 19.1215 9.51577 18.8371 9.25692 18.5136C9.25232 18.4713 9.25 18.4286 9.25 18.3858C10.0342 18.6362 11.0854 18.4442 11.9307 18.1904Z" fill="white"/>
<path d="M8.48686 15.0059C8.67593 15.0059 8.82919 15.1639 8.82919 15.3588C8.82919 15.3856 8.82628 15.4118 8.82076 15.437L8.48726 15.4721L8.17566 15.506C8.15568 15.4612 8.14453 15.4113 8.14453 15.3588C8.14453 15.1639 8.2978 15.0059 8.48686 15.0059Z" fill="#231F20"/>
<path d="M11.871 14.5244C12.0596 14.5104 12.2242 14.6565 12.2386 14.8509C12.2416 14.8914 12.2379 14.9309 12.2283 14.9681L11.5985 15.0477C11.5748 15.0041 11.5596 14.9547 11.5557 14.9016C11.5413 14.7073 11.6824 14.5384 11.871 14.5244Z" fill="#231F20"/>
</g>
</g>
<defs>
<clipPath id="clip0_4709_7422">
<rect width="32" height="32" fill="white" transform="translate(0 0.5)"/>
</clipPath>
</defs>
</svg>
