<svg width="115" height="33" viewBox="0 0 115 33" fill="none" xmlns="http://www.w3.org/2000/svg">
<path fill-rule="evenodd" clip-rule="evenodd" d="M61.1845 18.3938L61.194 14.3844C64.0279 14.3844 65.0686 14.259 65.5631 17.3411H65.8637V13.9122L58.1399 13.9137V14.3844H59.479V23.2074H58.0034V23.6718H65.9615V20.067H65.5631C65.1669 22.7935 64.3864 23.2089 62.1999 23.2089H61.185V18.9224H61.7723C62.7528 18.9451 63.3131 19.4495 63.5131 20.9478H63.8756L63.8733 16.5141C63.8643 16.522 63.5171 16.5141 63.5171 16.5141C63.5171 16.5383 63.4463 18.4195 61.7307 18.3938H61.1845ZM58.0303 18.5702H53.6737V19.0089H55.165V22.1814C54.9139 22.9856 53.5753 23.3225 53.1769 23.3225C50.392 23.3225 50.5903 19.7163 50.5903 18.7475C50.5903 17.8657 50.4903 14.1705 53.1769 14.1705C55.065 14.1705 56.0596 15.8393 56.4603 17.3401H56.7637C56.7637 16.7226 56.7733 13.7837 56.766 13.7902C56.7733 13.7679 55.4707 14.6201 55.4651 14.6077C55.4926 14.6013 54.8706 13.8173 53.1769 13.8173C49.8918 13.8173 48.6876 16.7226 48.6983 18.7475C48.7129 20.603 49.6789 23.7612 53.1769 23.7612C54.2777 23.7612 55.0504 23.2662 55.4651 22.7021C55.4707 22.6907 56.8514 23.6693 56.8548 23.6723V19.0089H58.0303V18.5702ZM96.0924 20.1525L97.6827 15.9337L99.3758 20.1525H96.0924ZM89.9241 18.4694H88.136V14.379H90.4208C91.7638 14.5583 91.8178 15.9337 91.8178 16.3689C91.8178 17.4295 91.3193 18.4694 89.9241 18.4694ZM108.938 20.067C108.542 22.7944 107.764 23.2025 105.575 23.2025H105.44V14.3805H106.832V13.9048H102.257V14.3805H103.649V23.202H102.545L98.4789 13.6405H97.8827C97.8951 13.6355 94.5027 22.3167 94.4954 22.3409C94.5027 22.3167 94.2408 23.0859 93.6823 23.1827C93.1675 23.205 93.2074 22.9664 93.2074 22.8829V21.2092C93.2074 20.7725 93.1681 19.7766 92.6545 19.3171C92.0757 18.8024 91.094 18.7653 91.1159 18.746C91.1159 18.746 93.6148 18.2881 93.6148 16.1812C93.6148 14.706 92.4561 13.971 90.5208 13.9082H85.0274V14.3835H86.4322V23.205H85.0274V23.6728H89.5352V23.205H88.127V18.9619H90.0027C93.253 19.1991 89.4442 23.6792 93.7059 23.6728H96.3925V23.202C96.2436 23.202 95.2574 23.2277 95.1978 22.6186C95.154 22.1814 95.8452 20.6015 95.8452 20.6015H99.5017C99.4994 20.5951 100.64 23.205 100.649 23.205H99.3758V23.6728H109.337V20.0665L108.938 20.067ZM79.6097 14.3795C82.4453 14.3795 83.4916 14.2585 83.9844 17.3406H84.2845V13.9122H73.0244V14.3795H73.3189C73.7173 14.3795 74.6574 14.4067 74.7159 15.1418H74.7142V20.7685L69.4444 13.9117H66.5774V14.3795H67.0544C67.6198 14.3795 68.4132 14.4017 68.448 15.1418V22.3513C68.448 23.0543 67.2579 23.3235 66.7634 23.3235H66.7561V23.6733H70.6379V23.3235C70.1412 23.3235 68.9442 23.0543 68.9442 22.3513L68.9572 16.0058C71.0431 18.6448 74.9794 23.6797 75.0159 23.6728H75.2126V15.1423C75.2671 14.4072 76.2095 14.38 76.6062 14.38H77.8987V23.2084H76.4258V23.6728H84.3839V20.0665H83.9838C83.5888 22.794 82.8088 23.2099 80.6207 23.2099H79.6092V18.9219H80.1947C81.177 18.9441 81.7339 19.4505 81.9339 20.9464H82.2958L82.2941 16.5131C82.2868 16.5215 81.9373 16.5131 81.9373 16.5131C81.9373 16.5378 81.8682 18.419 80.1509 18.3928H79.6092V14.379L79.6097 14.3795ZM114.342 14.381V13.9053H109.849V14.381H111.263L111.266 23.1976H109.849V23.6733H114.342V23.1976H112.931V14.381H114.342ZM48.6983 11.2495V10.7752H50.1857V1.94631H48.8275V1.5432H56.5221V4.91727H56.2293C56.1001 4.1565 55.9383 3.56764 55.7292 3.15169C55.5325 2.76488 55.2741 2.47786 54.9324 2.30545C54.5941 2.11872 54.1738 2.01547 53.6866 2.00411C53.4427 1.9878 53.1696 1.9878 52.8622 1.97496C52.5532 1.97496 52.2295 1.95915 51.889 1.95915V5.99421C51.889 5.97939 51.9384 5.97939 52.0508 5.97939C52.1149 5.99421 52.18 5.99421 52.2295 5.99421H52.4076C52.715 5.99421 52.9583 5.95222 53.1353 5.84897C53.332 5.77784 53.4916 5.66372 53.6371 5.52194C53.6866 5.44932 53.7495 5.3767 53.799 5.30408C53.8495 5.23492 53.8956 5.14797 53.9451 5.06054C53.9771 4.98989 54.0282 4.91727 54.0429 4.83181C54.0597 4.76067 54.0754 4.69003 54.1086 4.61593C54.1226 4.54479 54.1412 4.48502 54.1412 4.43018C54.1575 4.37238 54.1575 4.31607 54.1738 4.2721C54.1738 4.2143 54.1906 4.18515 54.1906 4.17083V4.11253H54.5463V8.53638H54.1575C54.1226 8.34767 54.1086 8.17674 54.0591 8.01866C54.0282 7.8754 53.9771 7.73016 53.9445 7.58887C53.8321 7.31618 53.7192 7.11462 53.5882 6.97136C53.4421 6.79846 53.2663 6.68385 53.0859 6.62753C52.9094 6.55491 52.7004 6.52428 52.4402 6.52428H51.8895V10.7757H53.3624V11.25H48.6983V11.2495ZM75.5902 5.13315C75.5762 5.01855 75.5762 4.8738 75.543 4.70287C75.5267 4.60259 75.5267 4.51416 75.5104 4.41585C75.4936 4.31607 75.4936 4.2143 75.4778 4.11253C75.4447 3.91295 75.3958 3.69707 75.3306 3.46933C75.2666 3.25197 75.1845 3.05338 75.0553 2.85034C74.9575 2.69226 74.8282 2.549 74.6664 2.41858C74.5844 2.36177 74.5372 2.31978 74.472 2.26198C74.4102 2.21851 74.3281 2.16071 74.2792 2.13452C74.2135 2.08809 74.1331 2.0619 74.0517 2.01547C73.9713 1.9878 73.8404 1.94433 73.7623 1.94433H72.7238C72.7401 2.77921 72.7401 3.5548 72.7401 4.2884V10.79H74.1331V11.2495H69.5477V10.79H70.943V1.94433C70.943 1.94433 69.8568 1.93149 69.564 1.9878C69.4843 2.01547 69.4202 2.04461 69.273 2.11872C69.2095 2.14589 69.1437 2.19134 69.0622 2.23283C68.9965 2.2768 68.9161 2.32027 68.8363 2.37609C68.6908 2.4912 68.5616 2.65076 68.4452 2.82169C68.3834 2.92148 68.3345 3.02275 68.2873 3.12452C68.2379 3.22332 68.2053 3.33892 68.1704 3.44068C68.1069 3.66793 68.0581 3.88529 68.0255 4.08685C68.0109 4.18565 67.9923 4.2884 67.9923 4.38671C67.976 4.47069 67.9614 4.67521 67.9614 4.67521L67.9451 4.90245V5.07684H67.6051V1.5432H75.8993L75.9145 5.13315H75.5902ZM93.126 5.34904C93.2063 5.24875 93.2878 5.13266 93.3372 5.03287C93.3698 4.91678 93.417 4.80217 93.4496 4.67521C93.5137 4.43018 93.5463 4.15601 93.5463 3.89962C93.5463 3.84182 93.5463 3.77068 93.5317 3.68373C93.5317 3.61112 93.5137 3.51083 93.5137 3.41104C93.4828 3.18083 93.4316 2.97928 93.3535 2.7792C93.2715 2.56332 93.1591 2.40524 92.9641 2.21999C92.8989 2.14737 92.7551 2.0619 92.6567 2.03276C92.5747 1.9878 92.446 1.94581 92.1549 1.94581H89.8538V6.00804H91.6509C92.024 6.00804 92.3168 5.95173 92.5421 5.83761C92.786 5.73585 92.9771 5.57924 93.1265 5.34854M95.9199 11.1349C95.8036 11.1769 95.6743 11.2055 95.5473 11.2203C95.3833 11.2495 95.2214 11.2781 95.0596 11.2781C94.6213 11.2781 94.283 11.2055 94.0723 11.0914C93.8447 10.9481 93.6665 10.79 93.5699 10.5737C93.4715 10.3449 93.4081 10.0994 93.3918 9.84353C93.3918 9.71113 93.3749 9.56787 93.3749 9.42609V9.01013C93.3918 8.70681 93.3918 8.41979 93.3749 8.14759C93.3749 7.8749 93.326 7.61703 93.2299 7.3883C93.1496 7.17242 92.986 6.98667 92.7747 6.8113C92.564 6.66903 92.2566 6.58406 91.8532 6.53861H89.9409V10.79H91.3997L91.4143 11.2495H86.8452V10.79H88.322V2.03276H86.8452V1.54418H92.369C92.6298 1.54418 92.8568 1.54418 93.0658 1.559C93.2771 1.58617 93.4901 1.6168 93.6845 1.67312C94.0576 1.75858 94.3796 1.8895 94.6398 2.07623C94.8994 2.23283 95.0944 2.46304 95.2383 2.75006C95.3832 3.05338 95.449 3.39523 95.449 3.79785C95.449 4.3299 95.3197 4.76067 95.0433 5.07634C94.7848 5.40535 94.4926 5.67903 94.1846 5.86478C93.8121 6.09351 93.4081 6.25307 92.9714 6.35336H92.986C93.0186 6.36818 93.0495 6.36818 93.1007 6.3825C93.1642 6.3825 93.2131 6.39683 93.2771 6.41115C93.3446 6.41115 93.4243 6.42597 93.4901 6.45463C93.6519 6.48229 93.8121 6.53861 93.9919 6.62753C94.1683 6.68385 94.3465 6.78364 94.492 6.91405C94.605 7.02866 94.7196 7.17242 94.8011 7.34137C94.8668 7.50291 94.9303 7.67236 94.9635 7.86058C94.9815 7.96036 94.9944 8.04929 94.9944 8.13475C95.0124 8.22021 95.0124 8.30568 95.027 8.39262C95.027 8.46376 95.0438 8.53786 95.0438 8.62135V10.5574C95.0438 10.5885 95.0596 10.6171 95.0759 10.6591C95.109 10.6898 95.1562 10.7174 95.222 10.7481C95.2546 10.7609 95.3523 10.7752 95.5125 10.7752L95.8873 10.6591L96.2273 10.9625C96.1621 11.0331 96.0475 11.0909 95.9199 11.1349ZM104.574 11.2495H96.6212V10.79H98.0946V1.94631H96.7504V1.5432H104.459V4.91727H104.152C104.086 4.52849 104.022 4.18515 103.941 3.89813C103.843 3.61161 103.765 3.35472 103.664 3.15218C103.473 2.76488 103.195 2.47786 102.855 2.29112C102.515 2.1039 102.094 2.01547 101.593 2.00411C101.351 1.9878 101.074 1.9878 100.783 1.97496C100.476 1.97496 100.152 1.95915 99.7956 1.95915V5.97939H100.346C100.622 5.97939 100.846 5.93789 101.074 5.84897C101.285 5.75067 101.447 5.63457 101.56 5.52194C101.625 5.4345 101.674 5.36386 101.736 5.29124C101.787 5.2201 101.837 5.14797 101.867 5.06054C101.9 4.97359 101.933 4.90245 101.965 4.83181C101.998 4.76067 102.015 4.67521 102.031 4.60259C102.064 4.52849 102.08 4.44154 102.08 4.37238C102.094 4.29976 102.111 4.19948 102.111 4.09969H102.468V8.53638H102.08C102.064 8.34767 102.031 8.17674 101.998 8.01866C101.965 7.8754 101.916 7.71731 101.867 7.58887C101.771 7.31618 101.642 7.0998 101.527 6.95654C101.381 6.79846 101.221 6.68385 101.044 6.61172C100.832 6.5391 100.621 6.51144 100.396 6.51144H99.7956V10.79H100.799C101.365 10.79 101.837 10.7609 102.193 10.6888C102.581 10.6162 102.906 10.4744 103.146 10.258C103.408 10.0278 103.617 9.6973 103.779 9.29715C103.861 9.08127 103.941 8.85057 103.99 8.57837C104.056 8.30568 104.104 7.99001 104.152 7.65803H104.574V11.2495ZM63.8132 2.03325V1.5432H67.0219V2.03325H65.6721V7.34681C65.6721 8.42572 65.6069 9.13166 65.4939 9.47648C65.1045 10.7001 64.0661 11.3043 62.3904 11.3043C61.5464 11.3043 60.7827 11.161 60.1331 10.8725C59.3689 10.5421 58.8817 10.0248 58.6872 9.34754C58.5749 9.00272 58.5411 8.33828 58.5411 7.34681V2.01547H57.179V1.5432H61.6284V2.01547H60.2629V7.34681C60.2629 8.3531 60.2803 9.01557 60.3281 9.30555C60.377 9.60541 60.5079 9.87959 60.7169 10.1552C61.139 10.7001 61.8228 10.834 62.7652 10.834C63.8368 10.834 64.437 10.4729 64.7955 9.80845C64.941 9.53477 65.0225 9.24775 65.0703 8.95876C65.1028 8.67075 65.1191 8.13673 65.1191 7.34681V2.03325H63.8132ZM83.1112 2.03325V1.5432H86.3198V2.03325H84.97V7.34681C84.97 8.42572 84.906 9.13166 84.7936 9.47648C84.4025 10.7001 83.3618 11.3043 81.6883 11.3043C80.8443 11.3043 80.0801 11.161 79.4327 10.8725C78.6685 10.5421 78.1813 10.0248 77.9846 9.34754C77.8722 9.00272 77.8391 8.33828 77.8391 7.34681V2.01547H76.4736V1.5432H80.9264V2.01547H79.562V7.34681C79.562 8.3531 79.5783 9.01557 79.6255 9.30555C79.6749 9.60541 79.8053 9.87959 80.0166 10.1552C80.4386 10.7001 81.1208 10.834 82.0632 10.834C83.1342 10.834 83.7327 10.4729 84.0929 9.80845C84.2407 9.53477 84.3204 9.24775 84.3682 8.95876C84.4002 8.67075 84.4188 8.13673 84.4188 7.34681V2.03325H83.1106H83.1112ZM3.22262 32.7359H2.34937V27.1437H0.574219V26.457H5.00732V27.1437H3.22262V32.7359ZM6.50375 29.5969C6.50375 31.0459 6.66166 32.2261 7.8715 32.2261C9.08303 32.2261 9.2415 31.0459 9.2415 29.5969C9.2415 28.1475 9.08303 26.9688 7.8715 26.9688C6.66166 26.9688 6.50375 28.1475 6.50375 29.5969ZM10.1546 29.5969C10.1546 31.1778 9.82703 32.8579 7.8715 32.8579C5.9199 32.8579 5.59005 31.1783 5.59005 29.5969C5.59005 28.0151 5.9199 26.3355 7.8715 26.3355C9.82703 26.3355 10.1546 28.0151 10.1546 29.5969ZM13.3863 32.7359H12.5131V27.1437H10.7379V26.457H15.1705V27.1437H13.3863V32.7359ZM16.273 30.3795H18.1774L17.2749 27.3467H17.2552L16.273 30.3795ZM16.6984 26.457H17.87L19.775 32.7359H18.8613L18.3555 31.0128H16.0949L15.5689 32.7364H14.6557L16.6984 26.457ZM20.2981 26.4575H21.1714V32.0502H24.049V32.7369H20.2981V26.4575ZM27.1408 32.7374H28.014V26.458H27.1408V32.7374ZM29.1924 26.4575H30.3236L32.6646 31.6985H32.6848V26.4575H33.5581V32.7369H32.3572L30.0853 27.654H30.0657V32.7369H29.1924V26.4575ZM37.7411 28.0843C37.7411 27.4263 37.4736 26.9698 36.6409 26.9698C35.9059 26.9698 35.4692 27.3196 35.4692 27.9875C35.4692 29.756 38.8127 28.6998 38.8127 30.9955C38.8127 32.4464 37.6119 32.8589 36.6116 32.8589C34.9539 32.8589 34.469 32.103 34.469 30.7663H35.34C35.34 31.4712 35.3906 32.2256 36.6695 32.2256C37.3646 32.2256 37.9013 31.7869 37.9013 31.118C37.9013 29.3415 34.5578 30.3715 34.5578 28.068C34.5578 27.4875 34.8342 26.335 36.6313 26.335C37.98 26.335 38.5941 26.9328 38.6144 28.0838H37.7406L37.7411 28.0843ZM39.6444 26.4575H40.5177V30.8715C40.5177 31.7953 40.8559 32.2256 41.7185 32.2256C42.6496 32.2256 42.9278 31.7503 42.9278 30.872V26.4575H43.801V30.8715C43.801 32.0759 43.1059 32.8594 41.7185 32.8594C40.2974 32.8594 39.645 32.1643 39.645 30.8715L39.6444 26.4575ZM45.7734 29.307H46.6371C47.1518 29.307 48.0942 29.307 48.0942 28.0932C48.0942 27.4776 47.6284 27.0903 46.8153 27.0903H45.7734V29.307ZM44.9024 26.4565H47.1923C48.3033 26.4565 49.0074 27.039 49.0074 28.0324C49.0074 28.7191 48.7399 29.4394 47.9161 29.6132V29.633C48.5308 29.6923 48.8781 30.1418 48.9186 30.6793L48.9781 31.7513C49.0163 32.4459 49.1456 32.6218 49.3546 32.7364H48.3038C48.1543 32.604 48.0847 32.1381 48.065 31.8284L48.0071 30.8552C47.9363 29.9921 47.4013 29.9408 46.9535 29.9408H45.7734V32.7364H44.9024V26.457V26.4565ZM51.0382 30.3795H52.9431L52.0407 27.3467H52.0227L51.0382 30.3795ZM51.4658 26.457H52.6352L54.5402 32.7359H53.6265L53.1224 31.0128H50.8595L50.3341 32.7364H49.4232L51.4658 26.457ZM55.0656 26.4575H56.1967L58.5361 31.6985H58.5563V26.4575H59.4296V32.7369H58.2287L55.9568 27.654H55.9366V32.7369H55.0656V26.4575ZM64.9421 30.5825C64.8635 31.7671 64.3381 32.8589 62.7899 32.8589C60.7765 32.8589 60.509 31.1793 60.509 29.5974C60.509 28.0141 60.8366 26.3345 62.7905 26.3345C64.238 26.3345 64.8438 27.0553 64.8837 28.2868H63.9706C63.9509 27.5755 63.6924 26.9698 62.7905 26.9698C61.5806 26.9698 61.4205 28.1465 61.4205 29.5974C61.4205 31.0469 61.5806 32.2265 62.7899 32.2265C63.852 32.2265 63.9998 31.3467 64.0307 30.5825H64.9421ZM65.7839 26.4575H69.4438V27.1442H66.6572V29.1128H69.2853V29.7995H66.6572V32.0502H69.5624V32.7369H65.7839V26.4575ZM75.8206 28.0843C75.8206 27.4263 75.5531 26.9698 74.7204 26.9698C73.9853 26.9698 73.5487 27.3196 73.5487 27.9875C73.5487 29.756 76.8922 28.6998 76.8922 30.9955C76.8922 32.4464 75.6914 32.8589 74.6895 32.8589C73.0317 32.8589 72.5462 32.103 72.5462 30.7663H73.4195C73.4195 31.4712 73.47 32.2256 74.749 32.2256C75.4424 32.2256 75.9791 31.7869 75.9791 31.118C75.9791 29.3415 72.6356 30.3715 72.6356 28.068C72.6356 27.4875 72.9137 26.335 74.7091 26.335C76.0589 26.335 76.6736 26.9328 76.6916 28.0838L75.8206 28.0843ZM78.6168 29.5969C78.6168 31.0459 78.7747 32.2261 79.9846 32.2261C81.1944 32.2261 81.354 31.0459 81.354 29.5969C81.354 28.1475 81.1944 26.9688 79.9846 26.9688C78.7747 26.9688 78.6168 28.1475 78.6168 29.5969ZM82.2654 29.5969C82.2654 31.1778 81.9395 32.8579 79.984 32.8579C78.0307 32.8579 77.7037 31.1783 77.7037 29.5969C77.7037 28.0151 78.0307 26.3355 79.9846 26.3355C81.9401 26.3355 82.266 28.0151 82.266 29.5969M83.3455 26.4575H84.2182V32.0502H87.0958V32.7369H83.3455V26.4575ZM87.6982 26.4575H88.5715V30.8715C88.5715 31.7953 88.9098 32.2256 89.774 32.2256C90.7035 32.2256 90.9822 31.7503 90.9822 30.872V26.4575H91.8549V30.8715C91.8549 32.0759 91.1598 32.8594 89.774 32.8594C88.3534 32.8594 87.6982 32.1643 87.6982 30.8715V26.4575ZM95.1073 32.7359H94.2347V27.1437H92.4589V26.457H96.8921V27.1437H95.1073V32.7359ZM97.5765 32.7374H98.4497V26.458H97.5765V32.7374ZM100.243 29.5969C100.243 31.0459 100.401 32.2261 101.613 32.2261C102.823 32.2261 102.981 31.0459 102.981 29.5969C102.981 28.1475 102.823 26.9688 101.613 26.9688C100.401 26.9688 100.243 28.1475 100.243 29.5969ZM103.894 29.5969C103.894 31.1778 103.567 32.8579 101.613 32.8579C99.659 32.8579 99.3314 31.1783 99.3314 29.5969C99.3314 28.0151 99.659 26.3355 101.613 26.3355C103.567 26.3355 103.894 28.0151 103.894 29.5969M104.775 26.4575H105.907L108.246 31.6985H108.266V26.4575H109.139V32.7369H107.939L105.667 27.654H105.647V32.7369H104.775V26.4575ZM113.325 28.0843C113.325 27.4263 113.057 26.9698 112.224 26.9698C111.489 26.9698 111.052 27.3196 111.052 27.9875C111.052 29.756 114.396 28.6998 114.396 30.9955C114.396 32.4464 113.195 32.8589 112.193 32.8589C110.536 32.8589 110.05 32.103 110.05 30.7663H110.924C110.924 31.4712 110.972 32.2256 112.251 32.2256C112.946 32.2256 113.483 31.7869 113.483 31.118C113.483 29.3415 110.139 30.3715 110.139 28.068C110.139 27.4875 110.418 26.335 112.213 26.335C113.563 26.335 114.178 26.9328 114.196 28.0838L113.325 28.0843ZM33.5626 20.2829C33.6497 20.0814 33.8244 19.9544 34.061 19.9139L36.4728 19.4367L36.2542 17.5313L36.2475 17.4893C36.1891 17.2393 36.0087 16.48 34.8882 16.3975C30.5793 16.0883 29.5807 15.5241 28.5327 14.9244L28.5271 14.9145L28.5215 14.918L28.4546 14.8775C27.3341 14.2377 26.2243 14.2313 26.1136 14.2343C24.8931 14.2343 23.3505 14.6631 23.223 14.6986C22.8504 14.7974 22.5009 14.8938 22.1643 14.9901C20.8168 15.3754 19.6508 15.7079 17.6913 15.6565L17.3334 15.6466L17.2423 15.9529C17.1715 16.1901 16.6242 18.1068 17.153 19.3398C16.6781 19.6723 16.6781 20.0527 16.6821 20.1056C16.7001 20.5265 16.5871 20.6312 16.5511 20.6638C16.3252 20.8713 15.5739 20.9009 14.9429 20.9009H14.7046L14.5698 21.0649C14.1792 21.5392 13.3369 21.6518 12.7963 21.5293C12.562 20.891 12.5547 20.4025 12.7839 20.112C13.0531 19.7672 13.6263 19.7286 13.8589 19.7286H13.9938C14.5681 19.7286 15.0322 19.3142 15.0322 18.8048V15.3695C15.2087 15.1324 15.3469 14.8567 15.4689 14.5455C16.4146 14.4121 17.1384 13.7022 17.1384 12.8461C17.1384 12.5191 17.0293 12.1999 16.8327 11.9292C17.7076 11.5587 18.4539 10.796 18.4539 9.7961C18.4539 8.7982 17.888 8.34075 17.348 8.03891C17.5002 7.65704 17.7514 6.98173 17.9211 6.30297L18.6775 3.90209C19.0158 2.961 19.9014 2.35139 20.9309 2.35139H34.2588C33.6952 3.05437 32.8933 3.3898 31.7835 3.3898H23.7181L23.2977 4.18762H30.5242C29.9567 4.9889 29.1256 5.36435 27.9449 5.36435H22.7049L22.2829 6.16415H26.9593C26.3934 6.93629 25.5696 7.29889 24.4109 7.29889H21.5535L21.1332 8.09721H24.1271C24.1564 8.13277 24.2311 8.25183 24.2311 8.5759C24.2311 9.09164 23.7433 9.5076 23.1432 9.5076C22.9392 9.5076 22.7628 9.46758 22.4554 9.35594C22.3228 9.30456 22.1902 9.25615 22.0587 9.20625L21.3619 9.75954C21.4911 9.80894 21.6226 9.85736 21.7535 9.90577C22.3537 10.138 22.6903 10.2575 23.1432 10.2575C23.6961 10.2575 24.1929 10.054 24.5475 9.73188C25.0588 9.76399 25.8877 9.82376 26.6868 9.88008C27.6471 9.95122 28.5513 10.0154 29.0188 10.0382C29.2531 10.0495 29.4711 10.0589 29.6807 10.0673C30.0792 10.0846 30.4427 10.1009 30.8063 10.1236C32.6258 12.7419 33.557 13.0867 37.082 13.4607C37.3332 13.8638 37.5624 14.2891 37.7827 14.7179V19.8462C37.8024 20.0799 37.8024 20.1589 37.7659 20.2009C37.6445 20.3427 37.1005 20.5442 36.9095 20.6134L33.9408 21.6049C33.5474 21.1326 33.4075 20.6396 33.5626 20.2829ZM32.9203 21.6661H27.0503L29.5661 19.3142C30.0735 18.8483 30.2371 18.2906 30.0224 17.7407C29.9005 17.4246 29.5695 16.8155 29.2222 16.193C30.2208 16.604 31.7363 16.975 34.8134 17.1944C35.1866 17.2215 35.2855 17.3327 35.358 17.6311L35.4928 18.8113L33.8823 19.1289C33.344 19.2238 32.9203 19.5384 32.7202 19.9929C32.5 20.4958 32.5741 21.0876 32.9203 21.6661ZM22.3334 21.6661C22.1699 21.102 22.2351 20.6505 22.5262 20.3555C22.8049 20.072 23.2342 19.985 23.536 20.0236L25.2533 20.3071L25.2948 20.3135H25.5331L26.7469 19.1546L26.7576 19.1447C26.9649 18.9303 27.596 18.2827 26.9542 17.4572L25.3314 15.0889C25.6005 15.0568 25.8697 15.0341 26.117 15.0341L26.1299 15.0326C26.1372 15.0341 26.9503 15.0227 27.8196 15.4723C27.9376 15.6946 28.1034 15.9915 28.2855 16.3205C28.6254 16.9316 29.0497 17.6923 29.166 17.9986C29.2042 18.0974 29.3189 18.3889 28.9131 18.7628L25.8056 21.6661H22.3334ZM21.8463 19.8284C21.5186 20.1604 21.2 20.7394 21.4079 21.6661H15.8796C16.473 21.6148 16.9057 21.4922 17.2024 21.2181C17.566 20.8846 17.5986 20.4281 17.5862 20.1026C17.5969 20.0734 17.657 19.9643 17.9279 19.8556L18.4044 19.6624L18.1189 19.2737C17.6458 18.6305 17.8531 17.2265 18.0352 16.4608H18.0774C19.9525 16.4608 21.1641 16.1159 22.443 15.7514C22.7757 15.6565 23.1196 15.5577 23.4832 15.4658L23.4944 15.4609C23.5011 15.4594 23.8765 15.3532 24.3834 15.25L26.1844 17.881L26.2029 17.9018C26.3827 18.129 26.4047 18.2807 26.0771 18.6181L25.1751 19.4816L23.6945 19.2366L23.6798 19.2351C23.0123 19.1447 22.2919 19.3769 21.8463 19.8284ZM12.0399 19.6545C11.6561 20.1446 11.6089 20.8199 11.8994 21.6661H10.9649V15.2065C11.2993 15.1595 11.6595 15.0761 11.9944 14.9407C11.9764 15.2223 11.9326 15.4451 11.8725 15.7435C11.8596 15.8126 11.8449 15.8838 11.8309 15.9608L11.7399 16.4267H12.2743C13.075 16.4267 13.6712 16.3175 14.1281 16.1061V18.8048C14.1281 18.874 14.068 18.9288 13.9932 18.9288H13.8584C13.0638 18.9288 12.4018 19.1931 12.0399 19.6545ZM10.0608 20.9686L5.80583 19.9845L1.54749 20.9676V14.2195L5.80583 13.2423L10.0608 14.2195V20.9676V20.9686ZM2.09538 21.6656L5.80583 20.811L9.5146 21.6656H2.09538ZM3.57944 11.7336C3.75589 11.495 4.16386 11.2855 4.67072 11.3661L5.05846 11.4239L5.17871 11.0953C5.2113 11.0064 5.25289 10.9422 5.3147 10.8903C5.42428 10.7999 5.58443 10.7584 5.78953 10.7629C6.33517 10.7777 7.01567 11.1146 7.56862 11.6402C7.77091 11.8319 7.9468 12.0542 8.10695 12.277C8.13786 12.3234 8.1727 12.3753 8.20698 12.4203C8.25081 12.4815 8.28733 12.5329 8.29464 12.5462C8.31655 12.5769 8.58909 12.9415 8.56942 12.9637C8.75823 12.7315 8.94367 12.4993 9.13136 12.2656C9.13698 12.2592 9.12742 12.238 9.11281 12.2074C9.06954 12.1268 8.97121 11.99 8.91277 11.9095C8.89647 11.8882 8.88411 11.8675 8.8695 11.8497C8.86725 11.8482 8.86556 11.8462 8.86556 11.8448C8.85994 11.8349 8.83466 11.7998 8.80206 11.7543C8.74025 11.6674 8.6509 11.5419 8.61101 11.4738L9.78994 9.80598C10.0822 9.86032 10.3317 9.86872 10.4502 9.86872H10.4811C12.1416 9.86872 13.8584 9.021 13.8584 7.59875V7.56368C13.8387 7.17835 13.7572 6.80883 13.6915 6.51243C13.6476 6.31729 13.6077 6.13352 13.6077 6.04015C13.6077 5.88207 13.8533 5.71114 14.2079 5.71114H14.7445L14.5029 4.4781C15.2576 3.98459 15.7234 3.1838 15.6981 2.41611C16.5107 2.9694 17.0861 3.92777 17.1912 4.9484C17.2221 5.2448 17.1547 5.66125 17.0473 6.09647L16.9895 6.27876L17.0007 6.28024C16.8074 6.9926 16.5236 7.7262 16.3724 8.073L16.2342 8.3941L16.5731 8.56306C17.1783 8.86786 17.5514 9.09016 17.5514 9.7961C17.5514 10.6073 16.7276 11.2292 15.933 11.3616L14.8429 11.5424L15.7633 12.0873C16.0578 12.2597 16.2342 12.5448 16.2342 12.8466C16.2342 13.3554 15.7453 13.7704 15.1446 13.7704H14.7973L14.7013 14.054C14.363 15.0272 13.9955 15.5049 12.8165 15.6081C12.871 15.3097 12.9076 15.0262 12.9076 14.6211C12.9076 14.5277 12.8986 14.2619 12.8946 14.1765L12.8418 13.2675L12.1197 13.9166C11.8758 14.136 11.4415 14.3118 10.9649 14.3958V13.6005L5.80583 12.4143L3.9683 12.8382C3.55922 12.4741 3.47717 11.8744 3.57888 11.7341L3.57944 11.7336ZM9.15102 8.79771C9.16395 8.74337 9.21509 8.69792 9.26791 8.6994L10.0462 8.72213C10.9936 8.69298 11.9579 8.34816 12.0652 7.47228C12.0652 6.88096 11.5921 6.30395 10.9228 6.30395C10.5649 6.30395 10.1625 6.52329 9.70959 6.78907C9.41682 6.96197 9.18418 7.09881 9.00548 7.09881C8.88748 7.09881 8.79082 7.02965 8.79082 6.97136C8.79082 6.96148 8.79307 6.94864 8.79644 6.94221L9.29319 6.35237L8.86388 6.09598C8.77284 6.0446 8.62899 5.94283 8.61438 5.87022C8.60539 5.83316 8.66383 5.77191 8.68181 5.75116C8.85826 5.56838 9.06393 5.34311 9.27128 5.06745C9.39659 4.91085 9.46964 4.82391 9.68262 4.82391C9.89165 4.82391 10.0647 4.97408 10.0647 5.15588C10.0647 5.27691 10.2136 5.37374 10.4008 5.37374C10.5862 5.37374 10.6705 5.25765 10.7863 5.15637C10.7863 5.15637 11.2285 4.79822 10.9942 4.62581C10.7244 4.43216 9.65339 4.82885 9.95178 3.95692L10.026 3.83243C10.1428 3.69707 10.6536 3.36164 11.7123 3.36164C11.9146 3.36164 12.1253 3.37449 12.34 3.39721L12.5018 3.41499L14.7485 2.1864C14.7681 2.22839 14.7754 2.25753 14.7754 2.25753L14.7777 2.27038C14.894 2.87307 14.4647 3.59086 13.7808 3.94012L13.5055 4.07944L13.6825 4.97853C13.1059 5.13513 12.7036 5.54466 12.7036 6.03966C12.7036 6.20861 12.7474 6.41017 12.8036 6.66507C12.8677 6.94864 12.9368 7.26777 12.9548 7.59381C12.9548 8.52847 11.4993 9.14747 10.2665 9.11042H10.2356C10.1844 9.10893 9.40052 9.0541 9.20722 8.92022C9.17126 8.89602 9.14203 8.8397 9.15102 8.79771ZM11.0138 2.5574C11.156 2.39635 11.3886 2.21702 11.6612 2.05598C11.8798 1.92852 12.1596 1.81737 12.4344 1.74623C12.871 1.63706 13.3712 1.62866 13.8898 1.71561L12.2945 2.58852C12.0961 2.57073 11.9011 2.56283 11.7123 2.56283C11.4415 2.56283 11.1942 2.5821 10.9649 2.61421C10.9812 2.59494 10.9975 2.57518 11.0138 2.5574ZM35.3141 2.3509H41.3257C40.7638 3.05536 39.9602 3.38931 38.8504 3.38931H34.4117C34.7646 3.11365 35.0669 2.76685 35.3141 2.3509ZM35.0124 5.36435H30.572C30.9664 5.05955 31.2924 4.66582 31.5542 4.18713H37.5917C37.0241 4.98841 36.1924 5.36386 35.0124 5.36386V5.36435ZM31.4795 7.29839H27.0413C27.4212 7.00347 27.7398 6.6216 27.9944 6.16366H34.0262C33.4603 6.93579 32.6399 7.29839 31.4795 7.29839ZM32.5 10.302C33.9059 10.5065 35.0573 11.0662 35.9221 11.9673C36.1076 12.1624 36.2852 12.3654 36.4616 12.5877C34.0959 12.3121 33.2715 12.0058 31.9493 10.2279C32.1252 10.2476 32.3089 10.2713 32.5 10.302ZM41.9388 18.9283C42.0264 19.0509 42.0989 19.1704 42.172 19.2816C42.2591 19.4199 42.3462 19.5538 42.4462 19.694C41.7606 19.6555 41.2437 19.3186 40.7638 18.6848C41.206 18.548 41.7427 18.6448 41.9388 18.9283ZM36.3144 21.6656L37.2365 21.3579L37.2494 21.3544C38.5587 20.8728 38.7464 20.5744 38.6846 19.8008V16.6811C39.6815 18.9239 40.6222 20.4998 42.5558 20.4998C42.8176 20.4998 43.0975 20.4711 43.3998 20.4114L44.1528 20.2602L43.6341 19.7523C43.3032 19.4298 43.143 19.1768 42.9576 18.8878C42.8811 18.7703 42.8047 18.6448 42.7086 18.5074C42.2557 17.8578 41.1802 17.6385 40.3109 17.9838C39.9164 17.2887 39.518 16.3832 39.0392 15.2643L38.9341 15.0514C38.8521 14.8834 38.7683 14.7159 38.6846 14.5465V14.5193H38.67C38.3739 13.9295 38.0575 13.3342 37.6788 12.7814C37.3349 12.275 36.9859 11.8413 36.6111 11.45C35.6035 10.4003 34.2701 9.74917 32.6472 9.51056C31.5267 9.34754 30.7321 9.31197 29.7263 9.2685C29.5167 9.2606 29.3003 9.25071 29.0677 9.23787C28.6125 9.2186 27.6707 9.15092 26.7609 9.08325C26.1484 9.03829 25.5207 8.99284 25.0257 8.96073C25.0583 8.83674 25.0785 8.70879 25.0785 8.57541C25.0785 8.39806 25.0583 8.23997 25.024 8.09622H31.4795C33.1423 8.09622 34.3482 7.44511 35.063 6.16217C36.7184 6.14933 37.9153 5.48538 38.6211 4.18713H38.8504C40.5727 4.18713 41.8045 3.49058 42.5103 2.11575L42.8025 1.55258H20.932C19.4962 1.55258 18.2723 2.38153 17.8121 3.66694L17.7992 3.7114C17.4283 2.79254 16.7461 2.01399 15.8729 1.55456C14.6608 0.913829 13.2818 0.700418 12.1838 0.979533C11.8197 1.07339 11.4578 1.21814 11.165 1.38907C10.9121 1.53727 10.5592 1.77587 10.3007 2.06437C10.0226 2.38202 9.75173 2.76883 9.55337 3.12649C9.4275 3.21887 9.32972 3.31422 9.26229 3.40413L9.00043 3.83935L8.98582 3.86405C8.67282 4.49094 8.2907 4.92765 7.99625 5.23245C7.70123 5.53874 7.68494 5.82724 7.7254 6.01447C7.76698 6.22195 7.89398 6.39139 8.02884 6.51885L8.01985 6.53169C7.93275 6.66507 7.88723 6.81525 7.88723 6.97185C7.88723 7.48266 8.38904 7.86996 9.00548 7.86996C9.45672 7.86996 9.82254 7.68421 10.2097 7.45549C10.3682 7.36163 10.7863 7.11857 10.9234 7.10425C11.0959 7.10425 11.2538 7.24405 11.2538 7.3972C11.2538 7.81661 10.6446 8.04089 10.2063 8.06954L9.31848 8.155C8.68012 8.20836 8.37612 8.50674 8.37612 8.77597C8.37612 9.04521 8.52222 9.19637 8.62337 9.28678L8.68912 9.34606L8.9167 9.52538L7.97433 10.8701C7.30114 10.3168 6.51555 9.98333 5.82044 9.96555C5.36977 9.9527 4.98035 10.0718 4.69264 10.3104C4.60891 10.3815 4.53642 10.4605 4.47629 10.549H4.45831C3.71431 10.549 3.11529 10.9022 2.82308 11.2989C2.50446 11.7306 2.61741 12.482 3.02313 13.0561L0.645584 13.601V23.6748H44.2528V21.6661L36.3144 21.6656Z" fill="white"/>
</svg>
