<svg width="138" height="48" viewBox="0 0 138 48" fill="none" xmlns="http://www.w3.org/2000/svg">
<path fill-rule="evenodd" clip-rule="evenodd" d="M0 3.98374C0 1.78358 1.78358 0 3.98374 0H133.854C136.054 0 137.837 1.78358 137.837 3.98374V43.8211C137.837 46.0213 136.054 47.8049 133.854 47.8049H3.98373C1.78358 47.8049 0 46.0213 0 43.8211V3.98374Z" fill="white"/>
<path d="M11.6139 10.9545C11.322 11.2588 11.1543 11.737 11.1543 12.3581V34.4293C11.1543 35.0503 11.3282 35.5223 11.6139 35.8328L11.6884 35.9074L24.053 23.5427V23.2509L11.6884 10.8862L11.6139 10.9608V10.9545Z" fill="#5BC9F4"/>
<path d="M28.1763 27.6653L24.0527 23.5417V23.2498L28.1763 19.1262L28.2695 19.1821L33.1508 21.9581C34.5481 22.753 34.5481 24.0447 33.1508 24.8397L28.2695 27.6156L28.1763 27.6715V27.6653Z" fill="url(#paint0_linear_1_1586)"/>
<path d="M28.2692 27.6091L24.0524 23.3923L11.6133 35.8315C12.0728 36.3159 12.8305 36.378 13.6875 35.8936L28.2692 27.6091Z" fill="url(#paint1_linear_1_1586)"/>
<path d="M28.2692 19.1828L13.6875 10.8983C12.8367 10.4077 12.0728 10.4698 11.6133 10.9542L24.0524 23.3934L28.2692 19.1766V19.1828Z" fill="url(#paint2_linear_1_1586)"/>
<path d="M69.2479 25.1441C66.9004 25.1441 64.9814 26.9327 64.9814 29.392C64.9814 31.8512 66.8942 33.6398 69.2479 33.6398C71.6016 33.6398 73.5143 31.8388 73.5143 29.392C73.5143 26.9451 71.6016 25.1441 69.2479 25.1441ZM69.2479 31.9692C67.9624 31.9692 66.8507 30.9073 66.8507 29.392C66.8507 27.8767 67.9624 26.8147 69.2479 26.8147C70.5334 26.8147 71.6451 27.858 71.6451 29.392C71.6451 30.9259 70.5334 31.9692 69.2479 31.9692ZM59.9449 25.1441C57.5974 25.1441 55.6785 26.9327 55.6785 29.392C55.6785 31.8512 57.5912 33.6398 59.9449 33.6398C62.2986 33.6398 64.2114 31.8388 64.2114 29.392C64.2114 26.9451 62.2986 25.1441 59.9449 25.1441ZM59.9449 31.9692C58.6594 31.9692 57.5478 30.9073 57.5478 29.392C57.5478 27.8767 58.6594 26.8147 59.9449 26.8147C61.2304 26.8147 62.3421 27.858 62.3421 29.392C62.3421 30.9259 61.2304 31.9692 59.9449 31.9692ZM48.8782 26.4483V28.2493H53.1882C53.0578 29.2615 52.7224 30.0006 52.2069 30.516C51.5797 31.1433 50.5985 31.8326 48.8782 31.8326C46.2203 31.8326 44.146 29.6901 44.146 27.0383C44.146 24.3865 46.2203 22.244 48.8782 22.244C50.3128 22.244 51.3561 22.8091 52.1262 23.5295L53.3993 22.2564C52.3187 21.2255 50.8904 20.4368 48.8782 20.4368C45.239 20.4368 42.1836 23.3991 42.1836 27.0321C42.1836 30.6651 45.239 33.6274 48.8782 33.6274C50.8407 33.6274 52.3249 32.9815 53.4801 31.7767C54.6724 30.5843 55.0388 28.9138 55.0388 27.5599C55.0388 27.1438 55.0078 26.7526 54.9395 26.4359H48.872L48.8782 26.4483ZM94.1324 27.8456C93.7784 26.8954 92.6978 25.1441 90.4932 25.1441C88.2885 25.1441 86.4876 26.8644 86.4876 29.392C86.4876 31.7705 88.2885 33.6398 90.7043 33.6398C92.6544 33.6398 93.7784 32.4474 94.2442 31.7581L92.7972 30.7955C92.3128 31.5034 91.6545 31.9692 90.7043 31.9692C89.7542 31.9692 89.0772 31.5345 88.6425 30.6837L94.3249 28.3362L94.1324 27.8518V27.8456ZM88.3382 29.2615C88.2885 27.622 89.6113 26.7837 90.5615 26.7837C91.3005 26.7837 91.9277 27.1563 92.1389 27.6841L88.3444 29.2615H88.3382ZM83.7178 33.3789H85.5871V20.8901H83.7178V33.3789ZM80.6623 26.0881H80.6002C80.1842 25.5913 79.3768 25.1379 78.3645 25.1379C76.2406 25.1379 74.2906 27.0072 74.2906 29.4044C74.2906 31.8015 76.2406 33.6336 78.3645 33.6336C79.3768 33.6336 80.1842 33.1802 80.6002 32.671H80.6623V33.2796C80.6623 34.9067 79.7929 35.7761 78.3956 35.7761C77.2529 35.7761 76.5449 34.9563 76.2531 34.2608L74.626 34.9377C75.0917 36.0618 76.3338 37.4467 78.3894 37.4467C80.5754 37.4467 82.4261 36.1611 82.4261 33.0187V25.3926H80.6561V26.0819L80.6623 26.0881ZM78.5198 31.963C77.2343 31.963 76.1537 30.8824 76.1537 29.4044C76.1537 27.9263 77.2343 26.8147 78.5198 26.8147C79.8053 26.8147 80.7865 27.9077 80.7865 29.4044C80.7865 30.9011 79.7867 31.963 78.5198 31.963ZM102.87 20.8901H98.405V33.3789H100.268V28.6467H102.87C104.938 28.6467 106.969 27.1501 106.969 24.7715C106.969 22.393 104.938 20.8963 102.87 20.8963V20.8901ZM102.92 26.9079H100.268V22.629H102.92C104.311 22.629 105.106 23.7841 105.106 24.7715C105.106 25.759 104.317 26.9141 102.92 26.9141V26.9079ZM114.44 25.1131C113.092 25.1131 111.695 25.7093 111.117 27.0259L112.769 27.7152C113.123 27.0259 113.782 26.8023 114.471 26.8023C115.434 26.8023 116.415 27.3798 116.433 28.4107V28.5412C116.098 28.3486 115.371 28.0568 114.49 28.0568C112.707 28.0568 110.894 29.038 110.894 30.87C110.894 32.5406 112.353 33.6149 113.993 33.6149C115.247 33.6149 115.937 33.0498 116.371 32.3915H116.433V33.3541H118.234V28.566C118.234 26.3489 116.582 25.1131 114.446 25.1131H114.44ZM114.216 31.9568C113.608 31.9568 112.757 31.6525 112.757 30.8948C112.757 29.9323 113.819 29.5596 114.732 29.5596C115.552 29.5596 115.937 29.7335 116.433 29.9757C116.291 31.1308 115.291 31.9506 114.216 31.9506V31.9568ZM124.786 25.3863L122.65 30.8017H122.588L120.371 25.3863H118.365L121.687 32.9504L119.793 37.161H121.737L126.86 25.3863H124.786ZM108 33.3727H109.863V20.8839H108V33.3727Z" fill="#20252B"/>
<path d="M46.9841 11.6618C46.6114 11.3265 46.1146 11.1153 45.5681 11.1153C44.3385 11.1153 43.3945 12.1276 43.3945 13.3759C43.3945 14.6241 44.3385 15.624 45.5681 15.624C46.6239 15.624 47.3939 15.0091 47.4436 14.0403H45.7731V13.351H48.3503C48.3503 15.4128 47.2511 16.3878 45.5681 16.3878C43.8851 16.3878 42.5996 15.0402 42.5996 13.3759C42.5996 11.7115 43.8976 10.3577 45.5681 10.3577C46.3444 10.3577 47.0462 10.6558 47.5554 11.1339L46.9841 11.6618Z" fill="#20252B"/>
<path d="M52.9097 10.4263V11.1653H50.2207V13.0408H52.5682V13.786H50.2207V15.5622H52.9905V16.3012H49.4258V10.4263H52.9035H52.9097Z" fill="#20252B"/>
<path d="M58.0592 10.4263V11.1777H56.2768V16.3012H55.4757V11.1777H53.6934V10.4263H58.0592Z" fill="#20252B"/>
<path d="M61.8613 10.4263V16.3012H61.0664V10.4263H61.8613Z" fill="#20252B"/>
<path d="M67.2682 10.4263V11.1777H65.4858V16.3012H64.6847V11.1777H62.9023V10.4263H67.2682Z" fill="#20252B"/>
<path d="M72.8669 10.3577C74.5499 10.3577 75.8541 11.7053 75.8541 13.3759C75.8541 15.0464 74.5499 16.3878 72.8669 16.3878C71.184 16.3878 69.8984 15.0402 69.8984 13.3759C69.8984 11.7115 71.1964 10.3577 72.8669 10.3577ZM72.8669 15.6178C74.1028 15.6178 75.053 14.6179 75.053 13.3759C75.053 12.1338 74.109 11.1215 72.8669 11.1215C71.6249 11.1215 70.6934 12.1276 70.6934 13.3759C70.6934 14.6241 71.6373 15.6178 72.8669 15.6178Z" fill="#20252B"/>
<path d="M80.5438 16.3012L77.8672 11.8733V16.3012H77.0723V10.4263H77.8548L80.5065 14.8169V10.4263H81.3014V16.3012H80.5438Z" fill="#20252B"/>
<defs>
<linearGradient id="paint0_linear_1_1586" x1="32.2441" y1="23.3927" x2="8.09859" y2="23.3927" gradientUnits="userSpaceOnUse">
<stop stop-color="#FEE000"/>
<stop offset="0.42" stop-color="#FBBC0E"/>
<stop offset="0.78" stop-color="#F9A318"/>
<stop offset="1" stop-color="#F99B1C"/>
</linearGradient>
<linearGradient id="paint1_linear_1_1586" x1="25.9776" y1="25.6839" x2="3.26669" y2="48.401" gradientUnits="userSpaceOnUse">
<stop stop-color="#EF4547"/>
<stop offset="1" stop-color="#C6186D"/>
</linearGradient>
<linearGradient id="paint2_linear_1_1586" x1="3.16112" y1="-1.70848" x2="21.7112" y2="16.8353" gradientUnits="userSpaceOnUse">
<stop stop-color="#279E6F"/>
<stop offset="0.04" stop-color="#2B9F6E"/>
<stop offset="0.46" stop-color="#52B16B"/>
<stop offset="0.8" stop-color="#6BBC69"/>
<stop offset="1" stop-color="#74C169"/>
</linearGradient>
</defs>
</svg>
