<svg width="40" height="40" viewBox="0 0 40 40" fill="none" xmlns="http://www.w3.org/2000/svg">
<g clip-path="url(#clip0_4032_2722)">
<path d="M40 24.4355C40 19.1312 37.8929 14.0442 34.1421 10.2934C30.3914 6.54268 25.3044 4.43555 20 4.43555C14.6956 4.43555 9.60857 6.54268 5.85786 10.2934C2.10714 14.0442 0 19.1312 0 24.4355H20H40Z" fill="#E4EFFA"/>
<path d="M17.5533 21.4854C16.0106 22.1545 14.6769 22.3379 13.1861 23.1161C12.1869 23.6378 11.2517 24.2813 10.224 24.7429C9.1963 25.2045 8.03101 25.4767 6.93869 25.2015C6.58159 25.1121 6.17186 24.8534 6.23501 24.4911C6.27034 24.2866 6.44927 24.1422 6.61541 24.0174L13.7868 18.6428C14.7446 17.9249 15.7227 17.1964 16.8534 16.804C17.4638 16.5927 18.1314 16.4844 18.7569 16.6401C19.3824 16.7957 19.9598 17.2528 20.1304 17.876C20.356 18.703 19.8432 19.5428 19.2524 20.1585C18.7532 20.678 18.2149 21.1982 17.5533 21.4854Z" fill="#B98063"/>
<mask id="mask0_4032_2722" style="mask-type:luminance" maskUnits="userSpaceOnUse" x="0" y="7" width="40" height="28">
<path d="M28.7289 7.39453C37.9661 7.73703 39.8305 11.9821 40 14.7891V34.7128H0V7.39453H28.7289Z" fill="white"/>
</mask>
<g mask="url(#mask0_4032_2722)">
<path d="M41.9653 1.49805C41.9653 1.49805 22.4583 15.683 21.4607 16.1056C20.4631 16.5281 19.5 16.3198 17.8483 16.4995C16.1966 16.6792 15.2103 17.2055 14.5141 18.4798C14.0134 19.3962 14.0631 21.3734 14.1262 22.4116C14.1546 22.8615 14.0592 23.3105 13.8503 23.71L13.1526 25.0444C12.9795 25.3753 12.6963 25.6353 12.3519 25.7797C12.3519 25.7797 8.97334 26.669 3.29129 28.3674C2.86704 28.4826 2.47767 28.7005 2.15759 29.0019C1.87642 29.283 1.7268 29.7973 2.03204 30.0544C2.20419 30.1973 2.45078 30.1958 2.67482 30.1867C5.37677 30.074 13.3728 29.7048 16.0816 29.0169C17.2935 28.7072 23.2883 21.3682 23.2883 21.3682L42.7717 11.5638L41.9653 1.49805Z" fill="#B98063"/>
</g>
<path fill-rule="evenodd" clip-rule="evenodd" d="M20.9541 24.1445L16.4697 24.3836C16.4205 24.533 16.3568 24.6773 16.2795 24.8144L15.5405 26.1262C15.3566 26.4532 15.064 26.7054 14.7135 26.839C14.7135 26.839 11.3086 27.6223 5.5769 29.1425C5.14875 29.2447 4.75255 29.4513 4.42365 29.7439C4.31502 29.8455 4.22388 29.9805 4.16797 30.1235C7.60377 29.962 13.7694 29.6071 16.0818 29.0198C16.7898 28.8389 19.1303 26.2587 20.9541 24.1445Z" fill="#CD9A83"/>
<path d="M16.4668 24.8729C16.4176 25.0224 16.3539 25.1666 16.2766 25.3037L15.5376 26.6156C15.3537 26.9425 15.0611 27.1947 14.7106 27.3283C14.7106 27.3283 11.3057 28.1116 5.574 29.6318C5.14584 29.7341 4.74965 29.9406 4.42075 30.2332C4.13056 30.5046 3.96516 31.0144 4.26287 31.2782C4.42977 31.4286 4.67636 31.4331 4.90039 31.4286C7.60686 31.4008 15.6089 31.2782 18.3372 30.6768C19.2454 30.4761 22.9232 26.4667 24.744 24.4316L16.4668 24.8729Z" fill="#B98063"/>
<path fill-rule="evenodd" clip-rule="evenodd" d="M18.6677 25.2064C18.7367 25.0649 18.7921 24.9171 18.8331 24.7651L19.5498 24.6851L24.6342 24.4141C22.8133 26.4491 19.1356 30.4585 18.2274 30.6592C16.0195 31.1459 10.3576 31.3191 6.84375 31.3821C6.86605 31.1758 6.97208 30.9598 7.11634 30.8081C7.42826 30.4982 7.81169 30.2699 8.23276 30.1435C13.8713 28.2948 17.225 27.316 17.225 27.316C17.5654 27.1626 17.8415 26.8951 18.0053 26.5596L18.6677 25.2064Z" fill="#CD9A83"/>
<path d="M18.9292 25.3511C18.8882 25.5031 18.8329 25.6509 18.7638 25.7924L18.1015 27.1456C17.9376 27.4811 17.6615 27.7486 17.3212 27.9019C17.3212 27.9019 13.9674 28.8808 8.32888 30.7294C7.9078 30.8559 7.52437 31.0841 7.21252 31.394C6.93884 31.6819 6.80277 32.2007 7.11476 32.4465C7.29066 32.5856 7.5373 32.5774 7.76052 32.5623C10.4587 32.3781 18.4428 31.7962 21.132 31.0361C22.0267 30.7836 25.4654 26.5712 27.1667 24.4316L18.9292 25.3511Z" fill="#B98063"/>
<path fill-rule="evenodd" clip-rule="evenodd" d="M25.1034 26.9695L22.206 26.9688C22.1451 27.1242 22.0696 27.2735 21.9804 27.4146L21.1241 28.761C20.9121 29.0953 20.5902 29.3452 20.2137 29.4677C20.2137 29.4677 16.566 30.1053 10.4164 31.3893C9.96529 31.484 9.51422 31.66 9.16236 31.9584C9.0035 32.092 8.8735 32.2884 8.81836 32.4885C12.1373 32.2495 18.7364 31.7137 21.1324 31.0366C21.7361 30.8661 23.4983 28.8925 25.1034 26.9695Z" fill="#CD9A83"/>
<path d="M22.7912 27.4551C22.7302 27.6105 22.6547 27.7597 22.5657 27.9009L21.7093 29.2474C21.4973 29.5817 21.1754 29.8316 20.7989 29.9541C20.7989 29.9541 17.1512 30.5916 11.0015 31.8757C10.5504 31.9704 10.0994 32.1463 9.74751 32.4447C9.42501 32.7161 9.22123 33.2462 9.52194 33.5416C9.69037 33.7085 9.95123 33.7288 10.1881 33.7394C13.0509 33.8619 21.5267 34.1904 24.4474 33.7032C25.4194 33.5424 29.5348 29.5112 31.5782 27.4574L22.7912 27.4551Z" fill="#B98063"/>
<path fill-rule="evenodd" clip-rule="evenodd" d="M12.254 33.8214C15.9656 33.9552 22.061 34.1017 24.4476 33.7036C25.4197 33.5428 29.5349 29.5116 31.5784 27.4578C33.1644 25.2575 29.9222 24.5139 25.9542 25.9176C25.9049 26.3815 25.8773 26.8152 25.862 27.155C25.8402 27.6321 25.6881 28.0941 25.4222 28.4909L24.5336 29.8156C24.3133 30.1442 23.9852 30.3856 23.6059 30.4982C23.6059 30.4982 19.9447 31.047 13.7657 32.1822C13.31 32.2656 12.8589 32.4311 12.4981 32.7205C12.1696 32.9844 11.9523 33.5091 12.2447 33.8121C12.2478 33.8153 12.2509 33.8184 12.254 33.8214Z" fill="#B98063"/>
<path d="M7.94068 12.1647C4.67184 18.1366 8.73661 24.9932 19.7626 32.487C30.7886 24.9932 34.8534 18.1366 31.5846 12.1647C29.15 7.71675 22.8293 7.57632 19.7626 11.107C16.6959 7.57632 10.3753 7.71675 7.94068 12.1647Z" fill="#AB1F08"/>
<path fill-rule="evenodd" clip-rule="evenodd" d="M30.8902 11.1331C28.1073 7.72118 22.5708 7.87596 19.7626 11.1089C16.6959 7.57825 10.3753 7.71875 7.94069 12.1666C7.04745 13.7985 6.70181 15.4964 6.89617 17.2553C8.92748 20.5595 12.636 24.0415 17.9793 27.673C26.7448 21.7155 31.1108 16.1608 30.8902 11.1331Z" fill="#E13632"/>
<path d="M33.0001 26.1906C31.2068 26.7462 29.7044 26.7881 27.9563 27.4711C26.7843 27.9281 25.6691 28.5297 24.4724 28.9168C23.2758 29.3039 21.9509 29.4658 20.774 29.0286C20.3893 28.8856 19.9653 28.5494 20.0795 28.1541C20.1444 27.9322 20.3598 27.7933 20.5595 27.6758L29.1669 22.5801C30.3175 21.8996 31.4903 21.2101 32.793 20.9118C33.4957 20.7474 34.2477 20.7121 34.9241 20.9603C35.6005 21.2084 36.1857 21.7821 36.2983 22.4971C36.4479 23.4382 35.778 24.3119 35.0474 24.9233C34.4261 25.4403 33.7661 25.9523 33.0001 26.1906Z" fill="#CD9A83"/>
<path fill-rule="evenodd" clip-rule="evenodd" d="M39.5171 27.5659C40.2782 25.2673 39.9098 22.1611 38.5356 20.7506C37.8176 20.9423 37.1331 20.8855 36.2736 20.8142C35.7431 20.7702 35.1458 20.7207 34.4329 20.7207C32.5089 20.7207 31.3098 21.2015 30.3441 22.5806C29.6529 23.5734 29.4581 25.8557 29.4038 27.0598C29.3801 27.5814 29.2138 28.0865 28.9231 28.5203L27.9516 29.9684C27.7108 30.3276 27.3521 30.5916 26.9374 30.7146C26.9374 30.7146 22.9349 31.3146 16.18 32.5556C15.6819 32.6468 15.1888 32.8277 14.7943 33.1441C14.4351 33.4326 14.1976 34.0063 14.5173 34.3375C14.6981 34.524 14.9817 34.5528 15.2406 34.5708C18.3637 34.7804 27.6204 35.3607 30.8257 34.9086C32.025 34.7396 37.6929 29.3323 39.5171 27.5659Z" fill="#CD9A83"/>
</g>
<defs>
<clipPath id="clip0_4032_2722">
<rect width="40" height="40" fill="white"/>
</clipPath>
</defs>
</svg>
