<svg width="138" height="48" viewBox="0 0 138 48" fill="none" xmlns="http://www.w3.org/2000/svg">
<path fill-rule="evenodd" clip-rule="evenodd" d="M0.162109 3.98374C0.162109 1.78358 1.94569 0 4.14585 0H134.016C136.216 0 137.999 1.78358 137.999 3.98374V43.8211C137.999 46.0213 136.216 47.8049 134.016 47.8049H4.14584C1.94568 47.8049 0.162109 46.0213 0.162109 43.8211V3.98374Z" fill="white"/>
<path d="M47.6273 15.2416L47.0928 16.9921H45.9297L47.9093 10.8125H49.3484L51.3574 16.9921H50.1473L49.5893 15.2416H47.6273ZM49.3954 14.3898L48.9079 12.8684C48.7904 12.4925 48.6905 12.0696 48.5965 11.7112H48.5789C48.4849 12.0696 48.3968 12.4984 48.2852 12.8684L47.8094 14.3898H49.3954Z" fill="#20252B"/>
<path d="M53.0441 12.5269L53.7666 14.7943C53.8958 15.1878 53.9839 15.5462 54.072 15.9104H54.1014C54.1837 15.5462 54.2835 15.1937 54.4069 14.7943L55.1235 12.5269H56.3042L54.6007 16.9912H53.4905L51.8281 12.5269H53.0499H53.0441Z" fill="#20252B"/>
<path d="M60.8025 15.9223C60.8025 16.3277 60.8201 16.7212 60.873 16.9973H59.8567L59.7745 16.5039H59.7451C59.4808 16.8505 59.0109 17.0972 58.4234 17.0972C57.5247 17.0972 57.0195 16.4451 57.0195 15.7696C57.0195 14.6535 58.0181 14.072 59.6688 14.0837V14.0132C59.6688 13.7195 59.5513 13.232 58.7583 13.232C58.3177 13.232 57.8595 13.3671 57.56 13.5609L57.3426 12.8267C57.6716 12.627 58.2531 12.4331 58.958 12.4331C60.3913 12.4331 60.8025 13.3436 60.8025 14.3246V15.9282V15.9223ZM59.704 14.8121C58.9051 14.8004 58.1474 14.9707 58.1474 15.6463C58.1474 16.0868 58.4293 16.2865 58.7876 16.2865C59.2458 16.2865 59.5689 15.9928 59.6746 15.6698C59.704 15.5875 59.704 15.5053 59.704 15.423V14.8063V14.8121Z" fill="#20252B"/>
<path d="M62.9566 11.8873C62.5807 11.8873 62.334 11.6113 62.334 11.2823C62.334 10.9357 62.5924 10.6655 62.9684 10.6655C63.3443 10.6655 63.5911 10.9299 63.6028 11.2823C63.6028 11.6113 63.3561 11.8873 62.9684 11.8873H62.9566ZM62.3986 16.992V12.5276H63.5264V16.992H62.3986Z" fill="#20252B"/>
<path d="M65.1445 10.4766H66.2724V16.9969H65.1445V10.4766Z" fill="#20252B"/>
<path d="M71.3728 15.9223C71.3728 16.3277 71.3904 16.7212 71.4433 16.9973H70.427L70.3448 16.5039H70.3154C70.0511 16.8505 69.5812 17.0972 68.9938 17.0972C68.095 17.0972 67.5898 16.4451 67.5898 15.7696C67.5898 14.6535 68.5884 14.072 70.2391 14.0837V14.0132C70.2391 13.7195 70.1216 13.232 69.3345 13.232C68.8939 13.232 68.4357 13.3671 68.1361 13.5609L67.9188 12.8267C68.2477 12.627 68.8293 12.4331 69.5342 12.4331C70.9616 12.4331 71.3787 13.3436 71.3787 14.3246V15.9282L71.3728 15.9223ZM70.2743 14.8121C69.4754 14.8004 68.7177 14.9707 68.7177 15.6463C68.7177 16.0868 68.9996 16.2865 69.358 16.2865C69.8161 16.2865 70.1392 15.9928 70.245 15.6698C70.2743 15.5875 70.2743 15.5053 70.2743 15.423V14.8063V14.8121Z" fill="#20252B"/>
<path d="M72.9708 10.4766H74.0986V13.1434H74.1162C74.3923 12.7146 74.8799 12.4268 75.5495 12.4268C76.6421 12.4268 77.4175 13.3373 77.4116 14.6942C77.4116 16.2978 76.3954 17.0967 75.385 17.0967C74.8094 17.0967 74.2925 16.8735 73.9753 16.3272H73.9576L73.9048 16.9969H72.9414C72.959 16.6914 72.9766 16.198 72.9766 15.7515V10.4766H72.9708ZM74.0986 15.1524C74.0986 15.2464 74.1104 15.3345 74.128 15.4167C74.2455 15.8749 74.639 16.2038 75.1266 16.2038C75.8315 16.2038 76.2662 15.6458 76.2662 14.7353C76.2662 13.9482 75.8902 13.3079 75.1383 13.3079C74.6801 13.3079 74.2572 13.6368 74.1397 14.1303C74.1221 14.2125 74.1045 14.3124 74.1045 14.424V15.1465L74.0986 15.1524Z" fill="#20252B"/>
<path d="M78.7305 10.4766H79.8583V16.9969H78.7305V10.4766Z" fill="#20252B"/>
<path d="M82.2898 15.0762C82.3192 15.881 82.9477 16.2334 83.6644 16.2334C84.1872 16.2334 84.5514 16.1512 84.9038 16.0337L85.0683 16.8032C84.6806 16.9677 84.1519 17.0852 83.5116 17.0852C82.0607 17.0852 81.209 16.1982 81.209 14.8295C81.209 13.5901 81.9609 12.427 83.3942 12.427C84.8275 12.427 85.3209 13.6195 85.3209 14.6004C85.3209 14.8119 85.3033 14.9764 85.2856 15.0762H82.2957H82.2898ZM84.2518 14.2891C84.2635 13.8779 84.0756 13.1965 83.3237 13.1965C82.6247 13.1965 82.3309 13.8309 82.2898 14.2891H84.2518Z" fill="#20252B"/>
<path d="M90.8806 17.0969C89.6236 17.0969 88.6426 16.2334 88.6426 14.7943C88.6426 13.3551 89.6059 12.427 90.9511 12.427C92.2963 12.427 93.1715 13.361 93.1715 14.7179C93.1715 16.3568 92.0143 17.0911 90.8865 17.0911H90.8748L90.8806 17.0969ZM90.9159 16.2804C91.5562 16.2804 92.0085 15.6578 92.0085 14.7473C92.0085 14.0483 91.6971 13.2435 90.9276 13.2435C90.1581 13.2435 89.8057 14.0248 89.8057 14.7649C89.8057 15.6284 90.2345 16.2804 90.9041 16.2804H90.9159Z" fill="#20252B"/>
<path d="M94.4962 13.8605C94.4962 13.3495 94.4786 12.9148 94.4609 12.533H95.4419L95.4948 13.2026H95.5242C95.7239 12.856 96.2114 12.4331 96.9574 12.4331C97.7035 12.4331 98.5435 12.9383 98.5435 14.3481V16.9973H97.4156V14.4773C97.4156 13.837 97.1748 13.3495 96.5639 13.3495C96.1174 13.3495 95.8061 13.6725 95.6828 14.0074C95.6475 14.1014 95.6299 14.2365 95.6299 14.3657V16.9973H94.5021V13.8605H94.4962Z" fill="#20252B"/>
<path d="M103.739 11.3826V12.528H104.814V13.3739H103.739V15.3359C103.739 15.888 103.886 16.1583 104.314 16.1583C104.514 16.1583 104.626 16.1465 104.755 16.1113L104.773 16.963C104.608 17.0276 104.303 17.0805 103.956 17.0805C103.533 17.0805 103.198 16.9454 102.987 16.7163C102.74 16.4578 102.629 16.0466 102.629 15.4592V13.368H101.994V12.5222H102.629V11.688L103.739 11.3767V11.3826Z" fill="#20252B"/>
<path d="M106.07 10.4766H107.198V13.1375H107.216C107.351 12.9261 107.545 12.7499 107.774 12.6324C108.003 12.5031 108.267 12.4326 108.555 12.4326C109.313 12.4326 110.112 12.9378 110.112 14.3652V16.9969H108.984V14.4827C108.984 13.8424 108.743 13.3431 108.12 13.3431C107.68 13.3431 107.369 13.6368 107.239 13.9775C107.204 14.0774 107.192 14.2008 107.192 14.3182V16.9969H106.064V10.4766H106.07Z" fill="#20252B"/>
<path d="M112.514 15.0762C112.544 15.881 113.172 16.2334 113.889 16.2334C114.412 16.2334 114.776 16.1512 115.128 16.0337L115.293 16.8032C114.905 16.9677 114.377 17.0852 113.736 17.0852C112.285 17.0852 111.434 16.1982 111.434 14.8295C111.434 13.5901 112.185 12.427 113.619 12.427C115.052 12.427 115.545 13.6195 115.545 14.6004C115.545 14.8119 115.528 14.9764 115.51 15.0762H112.52H112.514ZM114.476 14.2891C114.488 13.8779 114.3 13.1965 113.548 13.1965C112.849 13.1965 112.556 13.8309 112.514 14.2891H114.476Z" fill="#20252B"/>
<path d="M33.6007 22.9903C33.5713 19.9299 36.103 18.4438 36.2205 18.3733C34.7872 16.2821 32.5609 15.9942 31.7797 15.9707C29.9117 15.7769 28.1025 17.0868 27.1509 17.0868C26.1992 17.0868 24.7131 15.9884 23.1388 16.0177C21.1064 16.053 19.209 17.2278 18.1634 19.0488C16.0135 22.773 17.6171 28.2418 19.679 31.2552C20.7128 32.7296 21.917 34.3744 23.4913 34.3157C25.0303 34.251 25.606 33.3347 27.4681 33.3347C29.3302 33.3347 29.853 34.3157 31.4625 34.2804C33.119 34.251 34.1587 32.8001 35.1514 31.314C36.3439 29.6222 36.8197 27.9599 36.8432 27.8776C36.8021 27.8659 33.63 26.6558 33.5948 22.9845" fill="#20252B"/>
<path d="M30.5643 13.9961C31.3925 12.9564 31.9623 11.5466 31.8037 10.1133C30.6054 10.1661 29.1016 10.9415 28.2381 11.9578C27.4745 12.8506 26.7872 14.3192 26.9634 15.6937C28.3145 15.7936 29.6949 15.0123 30.5643 13.9902" fill="#20252B"/>
<path d="M55.888 34.0792H53.7381L52.5633 30.3785H48.4749L47.3529 34.0792H45.2617L49.3149 21.4851H51.8173L55.888 34.0792ZM52.2108 28.8278L51.1476 25.5383C51.036 25.2034 50.8245 24.4104 50.5132 23.1651H50.478C50.3546 23.6997 50.1549 24.4927 49.8788 25.5383L48.8332 28.8278H52.2167H52.2108Z" fill="#20252B"/>
<path d="M66.313 29.4267C66.313 30.9716 65.8959 32.1934 65.0618 33.0862C64.3158 33.8851 63.3877 34.2787 62.2775 34.2787C61.0791 34.2787 60.2215 33.8499 59.6987 32.9923H59.6635V37.7738H57.6428V27.9816C57.6428 27.0124 57.6193 26.0138 57.5664 24.9917H59.3404L59.452 26.4308H59.4931C60.1628 25.3441 61.1849 24.8037 62.5535 24.8037C63.6226 24.8037 64.5214 25.2266 65.2322 26.0725C65.9488 26.9184 66.3071 28.0345 66.3071 29.4149M64.2512 29.4913C64.2512 28.6102 64.0515 27.8759 63.652 27.3061C63.2173 26.7069 62.6299 26.4073 61.8956 26.4073C61.3963 26.4073 60.944 26.5718 60.5387 26.9008C60.1334 27.2356 59.8691 27.6644 59.7457 28.199C59.6811 28.4515 59.6517 28.6513 59.6517 28.8157V30.3313C59.6517 30.9892 59.8514 31.5472 60.2568 31.9995C60.6621 32.4577 61.1907 32.6809 61.8369 32.6809C62.5947 32.6809 63.188 32.3931 63.6109 31.8057C64.0338 31.2183 64.2453 30.4488 64.2453 29.4854" fill="#20252B"/>
<path d="M76.7583 29.4267C76.7583 30.9716 76.3412 32.1934 75.5071 33.0862C74.7611 33.8851 73.833 34.2787 72.7228 34.2787C71.5303 34.2787 70.6668 33.8499 70.144 32.9923H70.1088V37.7738H68.0939V27.9816C68.0939 27.0124 68.0704 26.0138 68.0176 24.9917H69.7916L69.9032 26.4308H69.9443C70.6139 25.3441 71.636 24.8037 73.0047 24.8037C74.0738 24.8037 74.9667 25.2266 75.6833 26.0725C76.4 26.9184 76.7583 28.0345 76.7583 29.4149M74.7023 29.4913C74.7023 28.6102 74.5026 27.8759 74.1032 27.3061C73.6685 26.7069 73.0811 26.4073 72.3468 26.4073C71.8475 26.4073 71.3952 26.5718 70.9899 26.9008C70.5846 27.2356 70.3202 27.6644 70.1969 28.199C70.1323 28.4515 70.1029 28.6513 70.1029 28.8157V30.3313C70.1029 30.9892 70.3026 31.5472 70.7079 31.9995C71.1132 32.4577 71.636 32.6809 72.2881 32.6809C73.0458 32.6809 73.6391 32.3931 74.0621 31.8057C74.485 31.2183 74.6965 30.4488 74.6965 29.4854" fill="#20252B"/>
<path d="M88.4376 30.5496C88.4376 31.6187 88.0675 32.4939 87.3156 33.1636C86.4933 33.8978 85.3537 34.2679 83.8852 34.2679C82.5282 34.2679 81.4415 34.0094 80.6191 33.4867L81.0891 31.8066C81.9761 32.3412 82.9453 32.6114 84.0085 32.6114C84.7663 32.6114 85.3596 32.4411 85.7825 32.1004C86.2054 31.7538 86.4169 31.2956 86.4169 30.7258C86.4169 30.2148 86.2407 29.7859 85.8941 29.4335C85.5475 29.081 84.966 28.758 84.1554 28.4584C81.9526 27.636 80.8482 26.4318 80.8482 24.8458C80.8482 23.812 81.2359 22.9602 82.0054 22.3023C82.7749 21.6385 83.8029 21.3096 85.0894 21.3096C86.2348 21.3096 87.1864 21.5093 87.9442 21.9087L87.439 23.5535C86.7282 23.1658 85.9235 22.972 85.0306 22.972C84.3198 22.972 83.7677 23.1482 83.3682 23.4947C83.0334 23.8061 82.8631 24.1879 82.8631 24.6343C82.8631 25.1336 83.0569 25.5448 83.4387 25.8679C83.7735 26.1675 84.3845 26.4906 85.2715 26.843C86.3523 27.2777 87.1512 27.7887 87.6622 28.3762C88.1733 28.9636 88.4259 29.692 88.4259 30.5613" fill="#20252B"/>
<path d="M95.1018 26.5136H92.8814V30.9251C92.8814 32.0471 93.2749 32.6051 94.0621 32.6051C94.4204 32.6051 94.72 32.5757 94.9549 32.5111L95.0078 34.0443C94.6142 34.1911 94.0856 34.2675 93.4394 34.2675C92.6405 34.2675 92.0179 34.0267 91.5714 33.5391C91.125 33.0516 90.8959 32.235 90.8959 31.0896V26.5136H89.5684V24.9981H90.8959V23.3357L92.8755 22.7366V24.9981H95.0959V26.5136H95.1018Z" fill="#20252B"/>
<path d="M105.141 29.468C105.141 30.866 104.742 32.0115 103.949 32.9044C103.115 33.8266 102.005 34.2848 100.624 34.2848C99.2438 34.2848 98.2276 33.8442 97.4405 32.9572C96.6475 32.0761 96.2539 30.96 96.2539 29.6148C96.2539 28.205 96.6592 27.0537 97.4757 26.1609C98.2922 25.2621 99.3907 24.8157 100.771 24.8157C102.152 24.8157 103.174 25.2562 103.984 26.1432C104.76 27.0067 105.141 28.1111 105.141 29.468ZM103.05 29.5326C103.05 28.6985 102.868 27.976 102.51 27.3768C102.087 26.6543 101.482 26.2901 100.701 26.2901C99.9194 26.2901 99.2732 26.6543 98.8503 27.3768C98.4861 27.976 98.3099 28.7043 98.3099 29.5678C98.3099 30.4313 98.4861 31.1245 98.8503 31.7237C99.285 32.4462 99.8959 32.8104 100.683 32.8104C101.47 32.8104 102.058 32.4403 102.492 31.706C102.868 31.0951 103.05 30.3726 103.05 29.5326Z" fill="#20252B"/>
<path d="M111.698 26.7718C111.498 26.7365 111.287 26.7189 111.063 26.7189C110.353 26.7189 109.806 26.9891 109.419 27.5237C109.084 27.9995 108.913 28.5928 108.913 29.3153V34.0792H106.899L106.916 27.8585C106.916 26.8129 106.893 25.8613 106.84 24.9978H108.596L108.673 26.7365H108.725C108.937 26.1374 109.278 25.6557 109.736 25.2974C110.182 24.9743 110.67 24.8098 111.193 24.8098C111.381 24.8098 111.545 24.8216 111.698 24.8451V26.7718Z" fill="#20252B"/>
<path d="M120.719 29.1107C120.719 29.4749 120.696 29.7745 120.649 30.0271H114.599C114.622 30.9258 114.916 31.6072 115.474 32.083C115.985 32.5059 116.643 32.7174 117.453 32.7174C118.346 32.7174 119.163 32.5764 119.903 32.2886L120.22 33.6925C119.363 34.0685 118.346 34.2564 117.172 34.2564C115.768 34.2564 114.657 33.8394 113.858 33.0111C113.06 32.1829 112.654 31.0726 112.654 29.6746C112.654 28.2766 113.03 27.1663 113.776 26.2559C114.558 25.2866 115.621 24.7991 116.948 24.7991C118.276 24.7991 119.251 25.2866 119.921 26.2559C120.455 27.0312 120.719 27.9829 120.719 29.1166M118.799 28.5938C118.81 27.9946 118.681 27.4777 118.405 27.043C118.059 26.4849 117.518 26.203 116.796 26.203C116.138 26.203 115.603 26.4791 115.192 27.0254C114.857 27.4601 114.657 27.9829 114.599 28.5938H118.799Z" fill="#20252B"/>
</svg>
