<svg width="21" height="21" viewBox="0 0 21 21" fill="none" xmlns="http://www.w3.org/2000/svg">
<path d="M20.5742 13.1989V20.5488C20.5742 20.7171 20.4423 20.8594 20.2714 20.8594H16.3567C16.1864 20.8594 16.0472 20.7171 16.0472 20.5488V14.0342C16.0472 13.2836 16.0096 12.4349 15.7313 11.8008C15.4787 11.2114 14.9988 10.7902 14.1086 10.7902C13.1873 10.7902 12.6632 11.1532 12.3721 11.6907C12.0632 12.2794 11.9874 13.0889 11.9874 13.918V20.5488C11.9874 20.7171 11.8481 20.8594 11.684 20.8594H7.87699C7.71291 20.8594 7.57422 20.7171 7.57422 20.5488V7.17045C7.57422 7.00225 7.71291 6.85938 7.87699 6.85938H11.5202C11.6842 6.85938 11.8235 7.00225 11.8235 7.17045V8.11594C12.1133 7.81808 12.4734 7.56575 12.8964 7.36469C13.5721 7.04088 14.4181 6.85938 15.4096 6.85938C17.1582 6.85938 18.3396 7.28688 19.1289 8.05135C19.9244 8.82159 20.3091 9.90979 20.4731 11.2435C20.5113 11.5351 20.5366 11.8525 20.5496 12.1889C20.568 12.5255 20.5742 12.8624 20.5742 13.1989Z" fill="white"/>
<path d="M5.57422 7.17045V20.5488C5.57422 20.7171 5.44028 20.8594 5.27534 20.8594H0.873174C0.70853 20.8594 0.574219 20.7171 0.574219 20.5488V7.17045C0.574219 7.00225 0.70853 6.85938 0.873174 6.85938H5.27534C5.44021 6.85938 5.57422 7.00233 5.57422 7.17045Z" fill="white"/>
<path d="M5.57422 3.35941C5.57422 4.03657 5.29979 4.65833 4.86095 5.1097L4.84246 5.12811C4.39117 5.57894 3.76353 5.85938 3.07426 5.85938C2.38536 5.85938 1.75742 5.57887 1.30605 5.12811C0.854759 4.67675 0.574219 4.04842 0.574219 3.35934C0.574219 2.67033 0.854684 2.04208 1.30605 1.59057C1.75742 1.13981 2.38536 0.859375 3.07426 0.859375C3.76353 0.859375 4.39109 1.13988 4.84246 1.59057C5.29375 2.04215 5.57422 2.67041 5.57422 3.35941Z" fill="white"/>
</svg>
