<svg width="32" height="32" viewBox="0 0 32 32" fill="none" xmlns="http://www.w3.org/2000/svg">
<g clip-path="url(#clip0_1_656)">
<path d="M9.50609 5.56379C6.96409 5.56379 4.74889 7.21713 3.21439 9.58475C1.48355 12.252 0.574219 15.7072 0.574219 19.0217C0.574219 19.9336 0.664635 20.79 0.845469 21.5701C0.934253 21.9477 1.04861 22.3189 1.18776 22.681C1.32101 23.0209 1.48126 23.3496 1.66697 23.6639C2.56597 25.161 4.01522 26.153 6.30793 26.153C8.24155 26.153 9.70889 25.2862 11.4294 22.9961C12.4111 21.689 12.9071 20.8959 14.8691 17.4161L15.8456 15.6866L16.0858 15.2668C16.1646 15.396 16.2421 15.52 16.3222 15.6543L19.1019 20.2978C20.0371 21.8608 21.2525 23.5993 22.2923 24.5784C23.6434 25.8533 24.8653 26.1543 26.2448 26.1543C27.6333 26.1543 28.668 25.6957 29.4158 25.0654C29.8334 24.7089 30.1872 24.2839 30.4621 23.8086C31.1622 22.5957 31.5742 21.0612 31.5742 18.9713C31.5742 15.458 30.6946 12.0518 28.8824 9.34838C27.2265 6.87871 25.0629 5.56379 22.7909 5.56379C21.4385 5.56379 20.0939 6.167 18.8474 7.25329C18.0053 7.98954 17.2238 8.91954 16.4966 9.90121C15.6053 8.771 14.7722 7.903 13.9675 7.24554C12.4408 5.99779 10.9773 5.5625 9.50609 5.5625V5.56379ZM22.6294 8.21558C24.111 8.21558 25.4556 9.19467 26.4941 10.7976C27.9563 13.0555 28.6215 16.2162 28.6215 19.0643C28.6215 21.0638 28.1461 22.8101 26.2461 22.8101C25.4969 22.8101 24.9196 22.513 24.0968 21.5133C23.4561 20.737 22.3621 19.0875 20.4388 15.8842L19.6418 14.5564C19.1238 13.6899 18.5833 12.8371 18.0208 11.9989C18.1112 11.8581 18.2029 11.7095 18.2933 11.5765C19.74 9.42329 21.0278 8.21558 22.6294 8.21558ZM9.45314 8.92988C11.0871 8.92988 12.1114 9.95158 12.9083 10.7976C13.3049 11.22 13.8603 11.9227 14.5023 12.8372L13.1848 14.8599C12.207 16.3621 10.7538 18.7569 9.5203 20.4632C7.98193 22.5931 7.18239 22.8101 6.30922 22.8101C5.63239 22.8101 4.96847 22.504 4.52284 21.7845C4.18314 21.2343 3.92351 20.325 3.92351 19.1418C3.92351 16.273 4.73726 13.2841 6.06768 11.2781C6.65409 10.3908 7.31284 9.69454 8.0478 9.298C8.47782 9.05904 8.96118 8.93242 9.45314 8.92988Z" fill="#FFFEFE"/>
</g>
<defs>
<clipPath id="clip0_1_656">
<rect width="31" height="31" fill="white" transform="translate(0.574219 0.359375)"/>
</clipPath>
</defs>
</svg>
