<svg width="32" height="33" viewBox="0 0 32 33" fill="none" xmlns="http://www.w3.org/2000/svg">
<mask id="mask0_4709_7389" style="mask-type:luminance" maskUnits="userSpaceOnUse" x="0" y="0" width="32" height="33">
<path d="M32 0.5H0V32.5H32V0.5Z" fill="white"/>
</mask>
<g mask="url(#mask0_4709_7389)">
<path d="M16.0612 32.3802C24.8647 32.3802 32.0013 25.2436 32.0013 16.4401C32.0013 7.63662 24.8647 0.5 16.0612 0.5C7.25771 0.5 0.121094 7.63662 0.121094 16.4401C0.121094 25.2436 7.25771 32.3802 16.0612 32.3802Z" fill="#E4EFFA"/>
<path d="M1.55225 28.4375L-2.95248 43.9273L-10.8555 50.4078C-9.52776 50.4078 -9.03776 52.8841 -8.95871 54.1222L6.37304 48.6692L7.32145 29.4649L1.55225 28.4375Z" fill="#AB1F08"/>
<path d="M1.63049 28.3586C4.47557 25.9876 12.8898 21.1051 14.3914 21.026C15.893 20.947 24.4701 23.7748 29.8441 26.3827C29.3699 33.5745 27.8684 49.6966 28.7377 56.2561C22.9685 60.9977 2.18356 65.0204 1.63035 61.5432C1.07714 58.066 -0.0291351 39.1066 1.63049 28.3586Z" fill="#C21B17"/>
<path d="M13.9427 44.0969C16.6258 42.2385 20.9381 32.0099 25.921 28.8076L19.7882 47.6082L0.71875 52.5666V45.7488C7.71407 49.0545 11.2596 45.9554 13.9427 44.0969Z" fill="#960002"/>
<path d="M23.2039 33.1804C26.7602 26.4629 29.8423 24.0129 31.2649 28.5967C32.6874 33.1804 27.1554 51.8315 26.128 53.4121C25.306 54.6766 9.08383 55.6249 1.07548 55.941C2.08704 53.9178 0.970083 51.8315 0.285156 51.0411C6.02803 49.5132 17.6402 46.3626 18.1459 45.9833C18.6517 45.6039 21.7286 37.29 23.2039 33.1804Z" fill="#E13632"/>
<path d="M18.924 15.5674L19.2771 22.9461C15.0526 24.6044 11.2603 23.2406 11.2266 22.371L11.6151 16.0288L18.924 15.5674Z" fill="#E0B699"/>
<path d="M13.9609 23.1507L19.2074 20.3418L20.0021 22.4349L14.1613 27.1303L13.9609 23.1507Z" fill="white"/>
<path d="M11.8995 22.739L10.2812 21.3438L9.35156 23.3282L10.0512 26.581L11.8995 22.739Z" fill="white"/>
<path d="M11.8226 22.8322C12.4848 22.7389 13.359 22.8983 13.902 23.2037C14.1404 24.3565 14.1404 25.9184 14.0477 27.0972C13.5444 27.4548 12.3074 28.2176 11.3856 28.4084C11.0279 28.117 10.3128 27.031 10.1406 26.4615C10.2466 26.1568 11.1339 23.4808 11.8226 22.8322Z" fill="#960002"/>
<path d="M8.45179 15.7594C7.698 15.8228 6.9968 14.8026 6.88563 13.4806C6.77445 12.1586 7.2954 11.0356 8.04919 10.9722C8.80299 10.9088 9.50419 11.9291 9.61536 13.251C9.72654 14.573 9.20559 15.696 8.45179 15.7594Z" fill="#E0B699"/>
<path d="M8.27223 12.2895C9.10778 8.54291 8.42822 8.07502 9.63519 5.82083C10.7572 3.72658 10.2683 4.0986 8.90765 4.9183C7.54806 5.73816 7.14374 10.4958 7.5122 11.9679C7.88071 13.4401 8.27223 12.2895 8.27223 12.2895Z" fill="#213E47"/>
<path d="M20.3401 13.0478C19.4945 18.0546 15.9271 22.1133 12.3721 22.1133C8.81709 22.1133 6.62065 18.0546 7.46625 13.0478C8.31179 8.04114 9.71764 3.98242 15.4342 3.98242C18.9892 3.98242 21.1857 8.04114 20.3401 13.0478Z" fill="#EED1C0"/>
<path d="M15.3107 18.4899C15.4785 18.6324 15.7157 18.6223 15.8668 18.4502C16.8362 17.3121 17.5667 15.5135 17.5735 13.6514C17.9897 13.8451 18.2866 13.9539 18.383 13.984C18.0038 14.7361 18.0714 15.8318 18.95 17.2481C18.3609 19.9977 17.4363 21.4788 15.2959 22.5128C14.226 23.0295 12.3614 22.7577 11.2191 22.5285C8.81157 22.0457 7.13665 19.728 7.07405 17.617C6.9994 15.1047 7.31097 14.5588 7.31097 14.5588C7.31097 14.5588 7.48591 17.3494 7.91714 17.0396C8.2487 16.8011 9.1385 16.3421 11.2407 16.6515C12.8458 16.8874 14.718 17.9856 15.3107 18.4899Z" fill="#213E47"/>
<path d="M8.52734 17.4219C9.81902 17.7471 11.5981 18.0134 12.8286 17.5141C12.9173 18.6591 11.8006 19.8138 10.7353 19.6827C9.84934 19.5736 8.98638 18.8032 8.52734 17.4219Z" fill="#CD9A83"/>
<path fill-rule="evenodd" clip-rule="evenodd" d="M8.99609 17.5318C9.21193 17.988 9.75008 18.5087 10.8901 18.5762C11.8931 18.6355 12.4984 18.1838 12.8308 17.6974C12.8328 17.6362 12.8315 17.5749 12.8267 17.5137C11.7399 17.9547 10.2251 17.7985 8.99609 17.5318Z" fill="white"/>
<path d="M20.8059 7.866C20.8059 7.866 22.6643 4.92538 20.1745 2.7052C17.4357 0.263318 13.552 0.0136757 10.1683 2.60683C8.39185 3.96818 8.12095 3.63566 7.68241 3.12772C7.23526 3.93987 8.08577 4.5641 8.08577 4.5641C8.08577 4.5641 6.88793 4.74558 6.65753 3.64959C6.02937 4.72171 6.60138 6.53057 7.58218 7.31312C9.80375 9.08633 15.4597 6.95546 16.9766 6.66377C19.5262 6.172 20.8061 7.86497 20.8061 7.86497L20.8059 7.866Z" fill="#213E47"/>
<path d="M17.0195 5.96366C17.0195 5.96366 19.1631 7.5032 18.7617 9.48364C18.4517 11.0143 17.7708 11.9456 17.6481 12.7816C17.4516 14.1191 17.764 14.2031 17.764 14.2031C17.764 14.2031 20.3851 15.449 21.3101 13.2987C22.2341 11.1481 22.6626 6.977 19.6553 5.02561C17.3971 3.55977 17.0199 5.96276 17.0199 5.96276L17.0195 5.96366Z" fill="#213E47"/>
<path d="M11.1906 12.2236C10.445 14.0634 9.88583 15.3251 9.86053 15.7193C9.83523 16.1136 10.2264 16.3532 10.9257 16.3532" stroke="#CD9A83" stroke-width="0.7" stroke-linecap="round"/>
<path d="M8.98982 12.1132C9.24078 12.1849 9.50573 12.0276 9.58159 11.7619C9.65746 11.4962 9.51551 11.2228 9.26455 11.1511C9.01359 11.0794 8.74864 11.2367 8.67278 11.5024C8.59691 11.7681 8.73886 12.0415 8.98982 12.1132Z" fill="#231F20"/>
<path d="M14.9122 12.7092C15.1686 12.763 15.4223 12.5882 15.4789 12.3187C15.5354 12.0493 15.3734 11.7872 15.117 11.7334C14.8606 11.6795 14.6069 11.8544 14.5503 12.1238C14.4938 12.3933 14.6558 12.6554 14.9122 12.7092Z" fill="#231F20"/>
<path d="M18.7883 17.1657C19.6514 17.4439 20.6957 16.5997 21.121 15.2802C21.5462 13.9607 21.1913 12.6655 20.3283 12.3874C19.4652 12.1093 18.4209 12.9535 17.9957 14.273C17.5704 15.5925 17.9253 16.8876 18.7883 17.1657Z" fill="#EED1C0"/>
</g>
</svg>
