<svg width="16" height="16" viewBox="0 0 16 16" fill="none" xmlns="http://www.w3.org/2000/svg">
<path d="M12.2774 5.68949L11.1378 5.66924L10.475 6.59749L10.1414 5.5078L9.05484 5.16413L9.98866 4.50974L9.97887 3.36951L10.8901 4.05486L11.9706 3.69427L11.6007 4.77222L12.2774 5.68949Z" fill="#F6A363"/>
<path d="M7.27513 4.03504L6.60016 3.67591L5.92294 4.02804L6.05534 3.27614L5.51098 2.7402L6.26709 2.63515L6.60783 1.95114L6.94254 2.63722L7.69882 2.7498L7.14883 3.28132L7.27513 4.03504Z" fill="#F6A363"/>
<path d="M11.5881 8.38767L12.34 8.52008L12.8762 7.97459L12.9825 8.73143L13.665 9.07256L12.9788 9.40678L12.8661 10.1626L12.3348 9.61357L11.5824 9.73848L11.9408 9.06477L11.5881 8.38767Z" fill="#F6A363"/>
<path d="M7.27579 6.38581C7.25199 6.41501 7.2226 6.43715 7.19125 6.4518C7.11023 6.4886 7.01075 6.47956 6.93753 6.41826C6.83425 6.33393 6.81973 6.18143 6.90458 6.08014C8.69576 3.90902 8.36588 0.353974 8.36244 0.318599C8.34856 0.186738 8.44447 0.0686674 8.57733 0.0545163C8.70945 0.0416256 8.82765 0.138036 8.84167 0.270396C8.85695 0.423766 9.1967 4.05891 7.27579 6.38581Z" fill="#F6A363"/>
<path d="M9.53989 8.73917C9.43751 8.82052 9.28441 8.80639 9.20129 8.70341C9.11718 8.6007 9.13333 8.4492 9.23605 8.36508C11.5811 6.46598 15.2126 6.83837 15.3659 6.85513C15.4977 6.86953 15.5934 6.98787 15.5797 7.12007C15.5692 7.20817 15.5153 7.27892 15.441 7.31288C15.4029 7.33037 15.3592 7.33866 15.3142 7.33396C15.2784 7.32952 11.7299 6.96461 9.53989 8.73917Z" fill="#F6A363"/>
<path d="M4.67878 6.20351C4.82959 5.8784 5.23447 5.80921 5.48563 6.06217L9.98711 10.6046C10.1107 10.7295 10.1655 10.8911 10.1375 11.0463C10.1085 11.2017 10.0017 11.3333 9.84168 11.4063C9.84168 11.4063 9.83795 11.4084 9.83695 11.4086L9.40284 11.604L3.71764 8.28694L4.67878 6.20351Z" fill="#F6A363"/>
<path d="M3.35178 9.07959L8.43115 12.0428L5.80482 13.2257L2.36543 11.2193L3.35178 9.07959Z" fill="#F6A363"/>
<path d="M0.721078 14.7858L2.00169 12.0085L4.83666 13.6624L1.22114 15.2913C0.958283 15.4095 0.810275 15.3012 0.7577 15.2494C0.706491 15.1968 0.599531 15.0478 0.721078 14.7858Z" fill="#F6A363"/>
</svg>
