<svg width="14" height="14" viewBox="0 0 14 14" fill="none" xmlns="http://www.w3.org/2000/svg">
<path d="M8.4147 3.15294C8.97475 3.26221 9.48945 3.53611 9.89294 3.9396C10.2964 4.34308 10.5703 4.85778 10.6796 5.41784M8.4147 0.859375C9.57827 0.988638 10.6633 1.5097 11.4917 2.33701C12.32 3.16432 12.8424 4.2487 12.9732 5.4121M12.3998 9.98776V11.7079C12.4004 11.8676 12.3677 12.0257 12.3037 12.172C12.2398 12.3183 12.1459 12.4497 12.0283 12.5576C11.9106 12.6656 11.7717 12.7478 11.6204 12.7989C11.4691 12.8501 11.3088 12.8691 11.1498 12.8547C9.38535 12.663 7.6905 12.0601 6.20141 11.0944C4.81599 10.2141 3.64141 9.03947 2.76106 7.65406C1.79202 6.1582 1.18896 4.45511 1.00075 2.68276C0.986419 2.5242 1.00526 2.36439 1.05608 2.21351C1.1069 2.06263 1.18857 1.92398 1.29591 1.8064C1.40325 1.68882 1.53389 1.59487 1.67952 1.53054C1.82516 1.46621 1.98259 1.43292 2.1418 1.43277H3.86197C4.14024 1.43003 4.41001 1.52857 4.621 1.71002C4.83199 1.89147 4.96981 2.14345 5.00875 2.419C5.08136 2.96949 5.21601 3.51001 5.41013 4.03023C5.48727 4.23546 5.50397 4.4585 5.45824 4.67293C5.41251 4.88736 5.30626 5.08419 5.1521 5.24008L4.42389 5.96829C5.24015 7.4038 6.42873 8.59238 7.86424 9.40864L8.59245 8.68043C8.74835 8.52627 8.94517 8.42003 9.1596 8.37429C9.37403 8.32856 9.59707 8.34526 9.8023 8.42241C10.3225 8.61653 10.863 8.75118 11.4135 8.82378C11.6921 8.86307 11.9464 9.00337 12.1283 9.21798C12.3101 9.4326 12.4067 9.70656 12.3998 9.98776Z" stroke="white" stroke-linecap="round" stroke-linejoin="round"/>
</svg>
