<svg width="25" height="24" viewBox="0 0 25 24" fill="none" xmlns="http://www.w3.org/2000/svg">
<path d="M7.39287 2.64861C5.27058 3.73232 3.58004 5.50569 2.59902 7.67735C1.618 9.84902 1.40486 12.2898 1.99461 14.5986C2.58437 16.9075 3.94194 18.947 5.84426 20.3822C7.74658 21.8173 10.0805 22.5627 12.4625 22.4959C14.8446 22.429 17.133 21.5539 18.9518 20.0143C20.7707 18.4747 22.0117 16.3622 22.4711 14.024C22.9304 11.6857 22.5807 9.26071 21.4794 7.14749C20.3781 5.03427 18.5908 3.35849 16.4111 2.39552" stroke="white" stroke-linecap="round" stroke-linejoin="round"/>
<path d="M16.668 4.5L15.918 2.25L18.168 1.5" stroke="white" stroke-linecap="round" stroke-linejoin="round"/>
<path d="M12.168 10.5L12.168 16.5C12.168 18 9.91797 18 9.91797 16.5" stroke="white" stroke-linecap="round" stroke-linejoin="round"/>
<path d="M12.168 5.25V4.5" stroke="white" stroke-linecap="round" stroke-linejoin="round"/>
<path d="M14.168 11.6992C14.168 11.0653 15.0635 10.5519 16.168 10.5519C17.2724 10.5519 18.168 11.0658 18.168 11.6992C18.168 8.38534 15.4819 5.69922 12.168 5.69922C13.2724 5.69922 14.168 8.38534 14.168 11.6992Z" stroke="white" stroke-linecap="round" stroke-linejoin="round"/>
<path d="M8.16797 10.5519C9.27244 10.5519 10.168 11.0658 10.168 11.6992C10.168 8.38534 11.0635 5.69922 12.168 5.69922C8.85409 5.69922 6.16797 8.38534 6.16797 11.6992C6.16797 11.0653 7.0635 10.5519 8.16797 10.5519Z" stroke="white" stroke-linecap="round" stroke-linejoin="round"/>
<path d="M10.168 11.6992C10.168 11.0653 11.0635 10.5519 12.168 10.5519C13.2724 10.5519 14.168 11.0658 14.168 11.6992C14.168 8.38534 13.2724 5.69922 12.168 5.69922C11.0635 5.69922 10.168 8.38534 10.168 11.6992Z" stroke="white" stroke-linecap="round" stroke-linejoin="round"/>
</svg>
