<svg width="40" height="40" viewBox="0 0 40 40" fill="none" xmlns="http://www.w3.org/2000/svg">
<g clip-path="url(#clip0_4032_2793)">
<path d="M20.0027 37.9597C30.1169 37.9597 38.316 29.9417 38.316 20.0511C38.316 10.1605 30.1169 2.14258 20.0027 2.14258C9.88862 2.14258 1.68945 10.1605 1.68945 20.0511C1.68945 29.9417 9.88862 37.9597 20.0027 37.9597Z" fill="#E4EFFA"/>
<path opacity="0.34" d="M22.1718 23.9267C22.5776 23.9267 22.9118 23.5717 22.9118 23.1264C22.9118 22.6811 22.5836 22.3262 22.1718 22.3262C21.7599 22.3262 21.4316 22.6811 21.4316 23.1264C21.4316 23.5717 21.7599 23.9267 22.1718 23.9267Z" fill="#E0AA3F"/>
<path d="M13.1986 20.4986C15.4648 20.8593 8.82894 23.4619 8.72051 22.6505C8.5308 21.1839 7.24044 18.4851 6.34593 15.7322C6.11281 15.0109 6.98567 13.6705 7.16459 14.0312C9.11629 17.9261 11.9951 20.3063 13.1986 20.4986Z" fill="#E13632"/>
<path d="M8.22185 15.8711C8.60677 16.4662 9.01342 17.0131 9.41463 17.4999C9.01885 17.6262 8.62849 17.7644 8.24356 17.8727C7.90199 17.9748 7.56592 18.071 7.22435 18.1732C7.00206 17.5962 6.77979 16.9951 6.56836 16.388C7.11593 16.2077 7.66885 16.0334 8.22185 15.8711Z" fill="#E13632"/>
<path d="M6.48617 14.7109C6.2422 15.4081 6.844 16.6283 7.38615 17.8906C7.76565 18.7801 8.80107 21.4248 9.64686 21.6112C10.4546 21.7855 11.2787 21.8696 12.0973 21.9117C10.6661 22.5609 8.76857 23.0898 8.71436 22.6631C8.52464 21.1964 7.23429 18.4976 6.33977 15.7447C6.24761 15.4502 6.33978 15.0535 6.48074 14.7169L6.48617 14.7109Z" fill="#AB1F08"/>
<path d="M30.9275 17.7757C33.0907 16.6096 37.0104 13.3759 39.1682 11.8552C40.35 11.0197 39.9434 11.5967 39.8512 11.765C39.77 11.9033 32.7816 18.4129 28.1029 21.7308C26.5579 22.8248 29.9679 18.2987 30.9275 17.7757Z" fill="#D30000"/>
<path d="M30.9279 17.7761C31.5948 17.4154 32.4297 16.8625 33.3297 16.2193C33.5899 16.2494 33.8555 16.1893 34.0778 16.021C34.5983 15.6242 36.4795 14.0615 36.7018 13.9412C37.6072 13.4544 39.277 11.8375 39.3312 11.7473C40.3179 11.0742 39.9492 11.6031 39.857 11.7594C39.7757 11.8976 32.7875 18.4072 28.1088 21.7252C26.5637 22.8191 29.9738 18.293 30.9333 17.7701L30.9279 17.7761Z" fill="#AB1F08"/>
<path d="M36.8348 19.7297C37.9788 21.4968 34.4331 23.6247 30.5351 24.3339C29.1039 24.5924 12.4383 25.8306 9.8957 25.2716C5.09231 24.2077 5.80253 22.4286 6.31214 22.2783C9.11506 21.4308 28.4154 16.3998 30.3834 16.1294C33.5549 15.6906 35.6258 17.8664 36.8348 19.7297Z" fill="#E13632"/>
<path d="M36.886 19.8086C38.0299 21.5757 34.4788 23.7096 30.5808 24.4188C29.1496 24.6773 12.484 25.9155 9.94141 25.3565C8.41256 25.0199 7.44213 24.6112 6.84576 24.2024C5.5663 23.3309 8.9167 26.787 29.8001 23.2407C31.0904 23.0243 34.4138 22.1167 35.6391 21.4676C37.4173 20.5239 36.8806 19.8086 36.8806 19.8086H36.886Z" fill="white"/>
<path d="M9.26751 23.9439C8.08566 24.9176 5.61344 25.3804 5.65681 25.6509C5.70018 25.9213 10.7313 24.6651 12.3957 24.3406C13.6372 24.1001 9.64158 23.6313 9.26208 23.9439H9.26751Z" fill="#AB1F08"/>
<path d="M8.61151 24.7482C7.4188 25.1028 5.65681 25.6618 5.65681 25.6498C5.61344 25.3793 8.08566 24.9225 9.26751 23.9427C9.64701 23.6302 13.6426 24.093 12.4011 24.3335C12.1409 24.3815 11.7939 24.4597 11.3981 24.5438C11.2301 24.5859 10.3464 24.2312 8.61151 24.7482Z" fill="#E13632"/>
<path d="M15.7207 27.188C15.8346 27.9153 15.4821 28.5945 14.9291 28.7028C14.3761 28.811 13.834 28.306 13.7147 27.5788C13.6009 26.8514 13.9533 26.1723 14.5116 26.0641C15.0646 25.9618 15.6068 26.4608 15.7207 27.188Z" fill="#EDEAE6"/>
<path d="M20.4688 29.0222C18.5713 29.3889 16.8364 28.6135 14.9281 28.7037C14.2938 28.7337 13.8763 25.9808 14.5106 26.065C15.9798 26.2693 19.314 25.7825 19.9375 25.6562L20.4688 29.0222Z" fill="#EDEAE6"/>
<path d="M14.3543 26.113C14.3977 26.077 14.4465 26.059 14.5061 26.065C14.6525 26.0349 14.7988 26.053 14.9398 26.101C16.5445 26.1792 19.3637 25.7645 19.9384 25.6562L20.4697 29.0222C18.5722 29.3889 16.8373 28.6135 14.929 28.7037C14.376 28.8119 13.8338 28.307 13.7146 27.5797C13.6116 26.9245 13.8935 26.3054 14.3543 26.113Z" fill="#EDEAE6"/>
<path d="M14.3543 26.113C14.3977 26.077 14.4465 26.059 14.5061 26.065C14.6525 26.0349 14.7988 26.053 14.9398 26.101C16.5445 26.1792 19.3637 25.7645 19.9384 25.6562L20.4697 29.0222C18.5722 29.3889 16.8373 28.6135 14.929 28.7037C14.376 28.8119 13.8338 28.307 13.7146 27.5797C13.6116 26.9245 13.8935 26.3054 14.3543 26.113Z" fill="#EDEAE6"/>
<path d="M14.3758 26.2126C14.4192 26.1766 14.468 26.1586 14.5277 26.1646C14.674 26.1345 14.8204 26.1526 14.9613 26.2006C16.5661 26.2788 19.3852 25.864 19.9599 25.7559L20.4912 29.1219C18.5937 29.4885 16.8588 28.7131 14.9505 28.8033C14.3975 28.9115 13.8553 28.4066 13.736 27.6793C13.633 27.0241 13.915 26.405 14.3758 26.2126Z" fill="#C7DDF1"/>
<path d="M14.3812 26.2308C14.4246 26.1948 14.4735 26.1768 14.5331 26.1828C14.6795 26.1527 14.8258 26.1708 14.9667 26.2188C16.3655 26.291 18.6804 25.9844 19.6346 25.8281C19.6021 25.8763 19.5858 25.9303 19.5804 25.9844C19.5099 25.9965 19.4394 26.0325 19.3744 26.1106C18.7509 26.874 17.7751 27.2226 16.9619 27.6794C16.2625 28.0701 15.5577 28.4428 14.8583 28.8215C14.3379 28.8635 13.8445 28.3767 13.736 27.6855C13.633 27.0423 13.915 26.4232 14.3758 26.2308H14.3812Z" fill="#50769A"/>
<path d="M21.5104 27.2097C21.6568 28.1413 21.2068 29.0069 20.4966 29.1391C19.7918 29.2774 19.0978 28.6341 18.9514 27.7025C18.8051 26.7709 19.255 25.9113 19.9652 25.7731C20.67 25.6409 21.364 26.284 21.5104 27.2097Z" fill="white"/>
<path d="M21.3106 27.2523C21.4353 28.0336 21.0504 28.7669 20.4594 28.8811C19.863 28.9953 19.283 28.4544 19.1582 27.673C19.0335 26.8916 19.4185 26.1643 20.0095 26.0441C20.6004 25.9238 21.1859 26.4648 21.3106 27.2523Z" fill="#6E878E"/>
<path d="M20.6979 27.3664C20.8389 28.2681 20.2425 28.9473 19.9226 28.809C19.5431 28.6467 19.2395 28.2079 19.1582 27.667C19.0552 27.0239 19.3479 26.4528 19.4998 26.3387C19.7328 26.1463 20.5298 26.3146 20.6979 27.3664Z" fill="#213E47"/>
<path d="M15.9691 25.0549C12.5807 27.1826 5.08283 30.1579 1.26072 31.9972C-0.826542 33.001 0.241494 32.8868 0.528831 32.8808C0.772796 32.8808 15.0692 28.1443 23.3586 24.1773C26.1018 22.8609 17.4709 24.1111 15.9691 25.0549Z" fill="#EDEAE6"/>
<path d="M15.9691 25.0549C12.5807 27.1826 5.08283 30.1579 1.26072 31.9972C-0.826542 33.001 0.241494 32.8868 0.528831 32.8808C0.772796 32.8808 15.0692 28.1443 23.3586 24.1773C26.1018 22.8609 17.4709 24.1111 15.9691 25.0549Z" fill="#E13632"/>
<path d="M21.0874 24.7941C21.4398 24.6078 22.6109 23.3395 15.319 25.4372C15.5358 25.311 15.7473 25.1848 15.9425 25.0646C17.4442 24.121 26.0751 22.8707 23.3373 24.187C16.4195 27.499 5.32183 31.3338 1.68945 32.5179C10.2716 29.3983 19.6236 25.5575 21.0874 24.7941Z" fill="#AB1F08"/>
<path d="M36.8394 19.7339C36.8394 19.7339 35.5933 18.7914 33.1925 17.4466C32.0056 16.7801 31.6269 16.2788 21.0582 18.7343C11.957 20.8476 5.86892 22.4165 6.37065 22.2664C9.13821 21.4259 28.3748 16.1258 30.3224 15.8616C33.4569 15.4294 36.2352 18.203 36.8394 19.7339Z" fill="#AB1F08"/>
<path d="M32.5777 19.4693C33.456 19.2349 34.4102 18.748 34.6921 18.4475C34.9686 18.147 35.0011 17.9606 35.0228 17.4498C35.0228 17.3115 34.3234 16.8366 34.2801 16.9028C33.9981 17.3776 33.7325 17.6781 33.7325 17.6781C33.7325 17.6781 32.7132 18.5858 31.6886 19.1027C30.9459 19.4753 31.8187 19.6737 32.5777 19.4693Z" fill="#F2F9FF"/>
<path d="M19.0742 8.31751C19.0742 8.31751 19.1202 8.31751 19.1457 8.31751C19.1457 8.3068 19.1457 8.29601 19.1457 8.27994C19.1457 6.95428 20.7778 5.88086 22.7936 5.88086C24.5024 5.88086 25.9298 6.65372 26.3288 7.69494C26.3902 7.69494 26.4465 7.68958 26.5079 7.68958C27.7511 7.68958 28.7641 8.39265 28.7641 9.25672C28.7641 10.1209 27.7562 10.8239 26.5079 10.8239C25.8274 10.8239 25.2186 10.6146 24.8094 10.2872C24.2312 10.5395 23.5405 10.6844 22.7936 10.6844C22.5531 10.6844 22.3177 10.6683 22.0875 10.6361C21.4736 11.0816 20.3583 11.3767 19.0792 11.3767C17.1402 11.3767 15.5645 10.6898 15.5645 9.84715C15.5645 9.00451 17.1402 8.31751 19.0792 8.31751H19.0742Z" fill="white"/>
</g>
<defs>
<clipPath id="clip0_4032_2793">
<rect width="40" height="40" fill="white"/>
</clipPath>
</defs>
</svg>
