<svg width="40" height="40" viewBox="0 0 40 40" fill="none" xmlns="http://www.w3.org/2000/svg">
<g clip-path="url(#clip0_4032_2749)">
<path d="M20.0027 37.9597C30.1169 37.9597 38.316 29.9417 38.316 20.0511C38.316 10.1605 30.1169 2.14258 20.0027 2.14258C9.88862 2.14258 1.68945 10.1605 1.68945 20.0511C1.68945 29.9417 9.88862 37.9597 20.0027 37.9597Z" fill="#E4EFFA"/>
<path d="M19.0742 8.31751C19.0742 8.31751 19.1202 8.31751 19.1457 8.31751C19.1457 8.3068 19.1457 8.29601 19.1457 8.27994C19.1457 6.95428 20.7778 5.88086 22.7936 5.88086C24.5024 5.88086 25.9298 6.65372 26.3288 7.69494C26.3902 7.69494 26.4465 7.68958 26.5079 7.68958C27.7511 7.68958 28.7641 8.39265 28.7641 9.25672C28.7641 10.1209 27.7562 10.8239 26.5079 10.8239C25.8274 10.8239 25.2186 10.6146 24.8094 10.2872C24.2312 10.5395 23.5405 10.6844 22.7936 10.6844C22.5531 10.6844 22.3177 10.6683 22.0875 10.6361C21.4736 11.0816 20.3583 11.3767 19.0792 11.3767C17.1402 11.3767 15.5645 10.6898 15.5645 9.84715C15.5645 9.00451 17.1402 8.31751 19.0792 8.31751H19.0742Z" fill="white"/>
<path d="M13.7366 20.0893C15.2189 19.9792 15.5383 20.1582 18.6896 19.8725C21.8409 19.5869 23.8006 15.5918 23.8006 15.5918L25.1286 15.6882C25.1286 15.6882 23.84 16.3419 22.6413 17.8594C22.1819 18.4376 21.0979 19.9757 20.6636 20.4299C20.2294 20.8842 9.73828 20.5401 9.73828 20.5401C9.73828 20.5401 12.8429 20.1512 13.7401 20.0859L13.7366 20.0893Z" fill="#AEC9D0"/>
<path d="M31.6225 16.9033C32.0603 17.4539 32.0531 17.6775 33.0796 18.9094C34.1061 20.1379 35.0537 20.2756 35.0537 20.2756L32.8428 20.3444L31.1738 16.1875C31.1738 16.1875 31.5363 16.7931 31.626 16.9033H31.6225Z" fill="#AEC9D0"/>
<path d="M30.1472 15.9766C30.1472 15.9766 30.7717 17.704 30.9405 18.2649C31.1092 18.8258 31.4896 20.3846 31.4896 20.3846L28.1445 20.4878C28.1445 20.4878 29.8996 20.2126 30.2908 18.9187C30.682 17.6248 30.1472 15.9766 30.1472 15.9766Z" fill="#AEC9D0"/>
<path d="M37.8858 23.8083C37.8858 23.8083 40.7248 25.725 38.6036 27.9652C36.486 30.2088 35.0073 26.9879 35.6462 25.436C36.285 23.884 37.1644 23.1958 37.8858 23.8083Z" fill="#231F20"/>
<path d="M15.8989 26.3977C15.8271 26.556 23.813 29.6564 23.7951 29.5015C23.7735 29.3467 24.1145 25.4961 21.6954 24.309C19.2763 23.1217 16.0783 25.9951 15.8989 26.3977Z" fill="#231F20"/>
<path d="M35.6434 28.3003C35.6434 26.4284 36.5299 24.9074 37.621 24.9074C37.6856 24.9074 37.7467 24.9143 37.8112 24.9246C37.3626 24.8145 36.6663 24.8523 36.2643 24.9246C35.9125 24.9865 35.6326 25.0863 35.507 25.1345C34.5954 25.4235 33.9062 26.738 33.9062 28.3175C33.9062 29.7937 34.5056 31.036 35.3311 31.4282C35.3383 31.4317 35.3491 31.4352 35.3562 31.442C35.4137 31.4696 35.4747 31.4902 35.5357 31.5075C35.6721 31.5487 35.866 31.5935 36.1244 31.6279C36.7345 31.707 37.5528 31.7586 37.8794 31.6588C37.7933 31.6795 37.7072 31.6898 37.6174 31.6898C36.5263 31.6898 35.6398 30.1722 35.6398 28.2969L35.6434 28.3003Z" fill="#213E47"/>
<path d="M39.4328 26.9262C39.4005 26.7954 39.3609 26.6681 39.3179 26.5477C39.0021 25.653 38.4494 25.0267 37.8105 24.9235C37.7494 24.9131 37.6849 24.9062 37.6202 24.9062C36.5291 24.9062 35.6426 26.4237 35.6426 28.2992C35.6426 30.1745 36.5291 31.6921 37.6202 31.6921C37.7099 31.6921 37.7961 31.6818 37.8822 31.6611C38.8513 31.4409 39.6014 30.0197 39.6014 28.2992C39.6014 27.8105 39.5404 27.346 39.4328 26.9227V26.9262ZM37.6705 30.6666C36.9311 30.6666 36.3354 29.5999 36.3354 28.2854C36.3354 26.9709 36.9347 25.9042 37.6705 25.9042C38.4063 25.9042 39.0057 26.9709 39.0057 28.2854C39.0057 29.5999 38.4063 30.6666 37.6705 30.6666Z" fill="#385B66"/>
<path d="M9.42502 28.6978C9.42502 30.7452 7.75967 32.4073 5.70668 32.4073C3.65369 32.4073 1.98828 30.7452 1.98828 28.6978C1.98828 26.6504 3.65369 24.9883 5.70668 24.9883C7.75967 24.9883 9.42502 26.6504 9.42502 28.6978Z" fill="#231F20"/>
<path d="M30.6399 15.0619C27.7004 14.2327 23.4401 14.329 19.2803 14.4804C15.5368 14.618 14.1119 15.1032 13.8642 15.1962C13.6956 15.2512 13.534 15.3132 13.3869 15.3785C11.359 16.2732 9.18757 19.3839 8.91836 19.759C8.64921 20.1341 8.26871 20.1341 8.26871 20.1341C8.24721 20.1341 7.917 20.1341 7.375 20.1341C7.393 20.227 7.41093 20.3199 7.44321 20.4163C7.56171 20.7982 7.85236 21.0701 8.27593 21.2009C9.01164 21.4279 9.91614 21.4762 10.5981 21.0976C11.0001 20.8739 11.3339 20.5608 11.6605 20.2477L9.99871 20.2958C9.99871 20.2958 10.0633 19.9208 11.2119 18.5857C11.962 17.7116 12.7588 16.6517 13.7206 16.0461C14.3272 15.6229 15.2353 15.289 16.0356 15.0929C16.2151 15.0826 16.3838 15.0723 16.5417 15.0654C22.5428 14.8039 24.9799 15.3234 24.9799 15.3234C24.9799 15.3234 27.4491 14.9105 27.5245 14.9449C27.5999 14.9794 33.5866 15.8912 30.6471 15.0619H30.6399Z" fill="#C21B17"/>
<path d="M15.1783 15.1817C15.1783 15.1817 13.5381 15.2987 12.0306 16.8162C10.5232 18.3303 9.39258 20.0371 9.39258 20.0371L19.654 20.0268L19.9986 20.0027C19.9986 20.0027 20.4042 20.0612 20.7631 19.5656C21.122 19.0701 23.035 16.1211 24.8762 15.1611C24.8762 15.1611 19.9088 14.638 15.1783 15.1851V15.1817Z" fill="#F2F9FF"/>
<path d="M23.0007 28.1074C23.0868 28.8266 23.0007 29.2499 23.0007 29.2499L22.832 30.647C22.832 30.647 22.9432 30.6332 23.1371 30.6126C23.2268 30.2788 23.2735 29.9278 23.2735 29.563C23.2735 29.0503 23.1765 28.5616 23.0042 28.1074H23.0007Z" fill="#6E878E"/>
<path d="M19.1938 33.6644C21.4388 33.6644 23.2588 31.8144 23.2588 29.5324C23.2588 27.2503 21.4388 25.4004 19.1938 25.4004C16.9488 25.4004 15.1289 27.2503 15.1289 29.5324C15.1289 31.8144 16.9488 33.6644 19.1938 33.6644Z" fill="#385B66"/>
<path opacity="0.8" d="M19.1473 26.8164C17.6224 26.8164 16.3867 28.0423 16.3867 29.557C16.3867 31.0716 17.6224 32.2976 19.1473 32.2976C20.6722 32.2976 21.9079 31.0716 21.9079 29.557C21.9079 28.0423 20.6722 26.8164 19.1473 26.8164Z" fill="#231F20"/>
<path d="M37.6711 25.9043C36.9317 25.9043 36.3359 26.971 36.3359 28.2855C36.3359 29.6 36.9353 30.6668 37.6711 30.6668C38.4069 30.6668 39.0062 29.6 39.0062 28.2855C39.0062 26.971 38.4069 25.9043 37.6711 25.9043Z" fill="#385B66"/>
<path opacity="0.8" d="M37.6711 25.918C36.9317 25.918 36.3359 26.9847 36.3359 28.2992C36.3359 29.6137 36.9353 30.6804 37.6711 30.6804C38.4069 30.6804 39.0062 29.6137 39.0062 28.2992C39.0062 26.9847 38.4069 25.918 37.6711 25.918Z" fill="#231F20"/>
<path d="M2.36417 23.6864C2.70873 23.2804 3.21837 22.4373 2.84151 21.8867C1.26228 22.8674 1.29102 24.1165 1.30179 24.3024C1.30179 24.3092 1.2946 24.3126 1.29102 24.3196C1.67864 24.1784 2.12369 23.972 2.36417 23.6899V23.6864Z" fill="#E7EBF6"/>
<path d="M1.29102 24.3196C1.29102 24.3196 1.2982 24.2094 1.30179 24.2026C1.28744 24.0271 1.25869 22.8296 2.84151 21.8867C2.84151 21.8867 1.82581 22.6162 1.70737 23.3629C1.58893 24.1096 1.58175 24.2851 1.48484 24.2989C1.38794 24.3126 1.29102 24.3161 1.29102 24.3161V24.3196Z" fill="#7A9EBF"/>
<path d="M18.4336 22.6349C19.9268 22.2943 20.3 20.4843 20.3789 19.9199C20.2174 20.0059 20.0846 20.0059 20.0846 20.0059C19.9626 19.9956 7.87075 20.0404 7.87075 20.0404C6.9591 20.2261 4.76255 20.7492 2.94285 21.8229C2.90695 21.8435 2.87464 21.8641 2.83875 21.8848C3.0864 22.2426 2.95722 22.7244 2.73828 23.1304C2.82801 23.1374 2.92134 23.1442 3.01465 23.1545C12.2639 23.8944 16.6606 23.0444 18.4336 22.6384V22.6349Z" fill="#E13632"/>
<path d="M39.498 25.6735C39.3653 24.8029 38.9058 23.977 38.5828 23.4437C38.3603 23.0205 38.145 22.6488 38.005 22.4045C37.8399 22.112 37.5958 21.699 37.3266 21.293C34.1035 21.5648 20.3535 22.5868 17.4642 22.8415C15.2497 23.2613 10.8961 23.7843 3.01432 23.1546C2.92101 23.1478 2.82768 23.1408 2.73795 23.1305C2.6231 23.3473 2.4831 23.5435 2.36107 23.6845C2.1206 23.9668 1.67555 24.1766 1.28792 24.3143C1.1946 24.4657 1.07258 24.6343 0.936188 24.7754C0.595221 25.123 0.4014 25.4636 0.390632 26.0899C0.379865 26.7196 0.268596 28.884 0.340379 29.2213C0.412162 29.5585 0.473194 30.0368 1.74735 30.3155C3.0215 30.5943 10.0993 31.1311 10.3685 31.1414C10.6341 31.1518 15.2748 31.4443 15.2748 31.4443C15.2748 31.4443 15.4113 31.4511 15.5692 31.3582C15.7092 31.2756 15.867 31.1139 15.964 30.7904C16.1578 30.1435 16.287 27.2805 17.8627 25.7286C17.9631 25.6288 18.0708 25.5359 18.1856 25.4464C20.0663 23.9908 22.0691 25.0748 22.6398 26.6439C22.8444 27.2048 22.9448 27.6969 22.9951 28.0995C23.171 28.5503 23.2643 29.0423 23.2643 29.5551C23.2643 29.9164 23.2176 30.2674 23.1279 30.6046C24.6856 30.4188 31.706 29.5895 32.0613 29.5585C32.4633 29.5241 33.8092 29.7788 34.222 29.617C34.6348 29.4553 34.8035 28.9425 35.2557 27.5558C35.7043 26.169 36.2499 24.7031 37.3805 24.3556C38.511 24.008 39.0889 25.3432 39.1894 25.6598C39.1894 25.6598 39.1894 25.6598 39.1894 25.6632C39.236 25.8353 39.3078 26.1725 39.3114 26.5441C39.3545 26.6645 39.3904 26.7919 39.4263 26.9226C39.516 26.668 39.5842 26.262 39.4908 25.67L39.498 25.6735Z" fill="#C21B17"/>
<path d="M36.6867 20.4263C36.6149 20.3093 35.0286 17.904 34.2533 16.8648C33.5678 15.946 32.1752 15.3266 30.8652 15.0375C29.5551 14.745 26.8847 14.2013 24.9538 15.1201C23.0228 16.0389 20.9591 19.2425 20.7042 19.6245C20.6037 19.7759 20.4853 19.8688 20.3812 19.9239C20.3022 20.4883 19.929 22.2948 18.4359 22.6389C18.1739 22.6974 17.8509 22.7697 17.4668 22.842C20.3525 22.5873 34.1062 21.5653 37.3292 21.2935C37.1247 20.9838 36.9021 20.674 36.6904 20.4263H36.6867ZM22.8757 18.4133C23.9668 17.0403 25.1943 15.4436 26.8597 15.2922C27.7282 15.213 28.8624 15.2681 29.9248 15.4401C30.0576 15.7945 31.0195 18.3444 31.2779 19.8757L21.7236 20.1716C21.7236 20.1716 21.7846 19.7863 22.8757 18.4133ZM34.8599 19.7622L32.6346 19.831C32.4084 19.1083 31.6942 16.9233 30.9549 15.6466C31.5256 15.7911 32.0352 15.97 32.4192 16.1868C33.5606 16.8269 34.7666 19.0808 34.9927 19.5144C35.0644 19.7278 34.8599 19.7622 34.8599 19.7622Z" fill="#C21B17"/>
<path d="M22.1093 21.1652C21.2443 20.5149 21.7252 19.7441 23.4193 17.7379C24.6863 16.2376 30.6227 15.6079 29.9301 15.4358C27.2418 14.7682 24.8765 15.1537 24.8765 15.1537C22.9455 16.0724 20.9607 19.2348 20.7058 19.6202C20.6054 19.7716 20.1926 19.9471 20.085 20.0056C20.006 20.5699 19.9271 22.3799 18.434 22.7207C18.172 22.7792 17.8489 22.8514 17.4648 22.9237C20.3506 22.669 34.1042 21.647 37.3273 21.3752C37.3273 21.3752 23.3152 22.0737 22.1093 21.1618V21.1652Z" fill="#AB1F08"/>
<path d="M26.8588 15.2933C25.197 15.4446 23.9695 17.0379 22.8748 18.4143C21.7802 19.7873 21.7227 20.1727 21.7227 20.1727L31.277 19.8768C31.0186 18.3455 30.0603 15.7956 29.9239 15.4412C28.8579 15.2692 27.7274 15.2141 26.8588 15.2933Z" fill="#F2F9FF"/>
<path d="M32.4194 16.1906C32.0354 15.9738 31.5258 15.7949 30.9551 15.6504C31.6945 16.9236 32.4087 19.1121 32.6348 19.8347L34.8601 19.766C34.8601 19.766 35.0647 19.7315 34.9929 19.5182C34.7668 19.0846 33.5608 16.8341 32.4194 16.1906Z" fill="#F2F9FF"/>
<path d="M14.4925 23.4334C14.7222 24.1389 14.033 24.9716 12.9563 25.2917C11.8795 25.6117 10.8208 25.2985 10.591 24.5931C10.3613 23.8877 11.0504 23.0549 12.1272 22.7349C13.2039 22.4149 14.2628 22.728 14.4925 23.4334Z" fill="#E7EBF6"/>
<path d="M14.4698 23.416C14.6995 24.1214 14.0104 24.9542 12.9336 25.2742C11.8569 25.5942 10.7981 25.2811 10.5684 24.5757C10.5684 24.5757 10.7981 25.2604 12.5424 24.937C14.2867 24.6135 14.4698 23.416 14.4698 23.416Z" fill="#7A9EBF"/>
<path d="M14.2201 26.9785C14.2452 27.357 13.6064 27.708 12.7916 27.7596C11.9733 27.8146 11.2914 27.5497 11.2626 27.1712C11.2339 26.7927 11.8764 26.4417 12.6911 26.3901C13.5059 26.335 14.1914 26.6 14.2201 26.9785Z" fill="#E4EFFA"/>
<path d="M0.75164 28.153C0.75164 28.153 0.77319 29.1646 1.12493 29.5225C1.47667 29.8804 8.0627 30.4688 8.85235 30.4275C9.64199 30.3862 10.2593 29.987 10.4567 29.3745C10.6541 28.7655 10.3706 28.5762 9.59892 28.4902C8.83085 28.4041 1.23258 27.8605 1.23258 27.8605C1.23258 27.8605 0.794711 27.7537 0.748047 28.1564L0.75164 28.153Z" fill="#213E47"/>
<path d="M19.4137 22.7978C19.4137 22.7978 20.9319 22.7771 22.0697 23.4171C23.2757 24.095 24.1155 25.4646 24.2447 26.583C24.4924 28.7578 24.0617 30.4989 24.0617 30.4989L32.0691 29.5629C32.0691 29.5629 33.0741 25.296 34.2298 24.4082C35.3854 23.5238 35.87 23.6959 36.333 23.1763C36.796 22.6601 36.7314 21.2871 36.7314 21.2871L19.4102 22.7943L19.4137 22.7978Z" fill="#E13632"/>
<path d="M2.1315 24.3187L10.5158 24.9932C10.5158 24.9932 10.889 24.9553 10.1425 24.4701C8.99755 23.7302 3.54562 23.4618 3.02161 23.6993C2.49759 23.9367 2.73448 23.9814 2.57655 24.0159C2.08484 24.1294 2.12791 24.3187 2.12791 24.3187H2.1315Z" fill="#213E47"/>
<path d="M13.4157 19.5763C14.9088 19.4662 15.2282 19.6485 18.3975 19.3595C21.5667 19.0704 23.5407 15.0547 23.5407 15.0547L24.8759 15.151C24.8759 15.151 23.5802 15.8083 22.3707 17.3361C21.9112 17.9177 20.8201 19.4662 20.3787 19.9204C19.9372 20.3746 9.38867 20.0339 9.38867 20.0339C9.38867 20.0339 12.5112 19.6451 13.4157 19.5763Z" fill="#E4EFFA"/>
<path d="M31.4109 16.3691C31.8488 16.9232 31.8452 17.1503 32.8753 18.3856C33.909 19.621 34.8601 19.7621 34.8601 19.7621L32.6348 19.8309L30.9551 15.6465C30.9551 15.6465 31.3212 16.2556 31.4109 16.3691Z" fill="#E4EFFA"/>
<path d="M29.9256 15.4414C29.9256 15.4414 30.5537 17.1791 30.726 17.7435C30.8983 18.3078 31.2788 19.877 31.2788 19.877L27.9121 19.9802C27.9121 19.9802 29.6779 19.7049 30.0691 18.4007C30.4603 17.0965 29.922 15.4414 29.922 15.4414H29.9256Z" fill="#E4EFFA"/>
</g>
<defs>
<clipPath id="clip0_4032_2749">
<rect width="40" height="40" fill="white"/>
</clipPath>
</defs>
</svg>
