<svg width="21" height="21" viewBox="0 0 21 21" fill="none" xmlns="http://www.w3.org/2000/svg">
<path fill-rule="evenodd" clip-rule="evenodd" d="M0.574219 10.8594C0.574219 5.34093 5.05808 0.859375 10.5742 0.859375C16.0925 0.859375 20.5742 5.34106 20.5742 10.8594C20.5742 16.3777 16.0925 20.8594 10.5742 20.8594C8.6541 20.8594 6.85544 20.3172 5.33441 19.3784L1.68154 20.6391C1.52036 20.6947 1.34162 20.6554 1.2186 20.5373C1.09558 20.4193 1.04897 20.2423 1.09787 20.079L2.21621 16.347C1.16846 14.739 0.574219 12.8647 0.574219 10.8594ZM8.5531 8.51226L6.93436 5.83862C6.30676 6.08898 5.93215 6.43796 5.71162 6.84558C5.45549 7.31899 5.39575 7.91614 5.53099 8.60948C5.80147 9.99615 6.86247 11.7007 8.23352 13.1026C9.60457 14.5044 11.287 15.5986 12.6799 15.8873C13.3763 16.0317 13.9865 15.9821 14.4862 15.7206C14.9175 15.4949 15.2946 15.1074 15.5839 14.4567L12.9716 12.8248L12.2561 13.5401C12.1259 13.6688 11.9301 13.7046 11.7628 13.6303C10.0566 12.8787 8.83813 11.4938 7.80973 9.71364C7.70973 9.54011 7.73817 9.32117 7.8792 9.17893L8.5531 8.51226Z" fill="white"/>
</svg>
